<?xml version="1.0" encoding="UTF-8" standalone="no"?>
<svg width="92px" height="115px" viewBox="0 0 92 115" version="1.1" xmlns="http://www.w3.org/2000/svg" xmlns:xlink="http://www.w3.org/1999/xlink" xmlns:sketch="http://www.bohemiancoding.com/sketch/ns">
    <!-- Generator: Sketch 3.4.3 (16044) - http://www.bohemiancoding.com/sketch -->
    <title>valet</title>
    <desc>Created with Sketch.</desc>
    <defs></defs>
    <g id="Core-Flow" stroke="none" stroke-width="1" fill="none" fill-rule="evenodd" sketch:type="MSPage">
        <g id="19-Dashboard@2x" sketch:type="MSArtboardGroup" transform="translate(-569.000000, -628.000000)">
            <g id="valet-+-homebase" sketch:type="MSLayerGroup" transform="translate(440.000000, 433.000000)">
                <g id="valet" transform="translate(129.000000, 195.000000)" sketch:type="MSShapeGroup">
                    <path d="M61.858883,89.7369927 L46,115 L30.141117,89.7369927 C12.5498941,83.2367819 0,66.2331638 0,46.2804878 C0,20.7204802 20.5949015,0 46,0 C71.4050985,0 92,20.7204802 92,46.2804878 C92,66.2331638 79.4501059,83.2367819 61.858883,89.7369927 Z" id="Triangle-1-Copy-2" fill="#4F70F8"></path>
                    <g id="person" transform="translate(25.000000, 24.000000)" fill="#FFFFFF">
                        <path d="M41.3867116,37.3780425 C39.8466331,32.7854845 36.278221,29.3438477 31.9061412,27.8617073 C31.3904218,27.6868869 30.8264872,27.929954 30.5933455,28.4270917 L24.4403553,41.5627277 L25.651594,34.7678534 C25.7804934,34.0429794 25.6003273,33.296222 25.1558931,32.7135287 L21.9430528,28.5057238 C21.7903511,28.3051873 21.5544018,28.187981 21.3050255,28.187981 C21.0557713,28.187981 20.8197,28.3051873 20.6672424,28.5057238 L17.4544021,32.7135287 C17.0098459,33.296222 16.8298018,34.0429794 16.9585791,34.7678534 L18.1688413,41.5569168 L12.0168277,28.4261026 C11.7836859,27.9278522 11.2206058,27.6860215 10.7040319,27.8617073 C6.33292859,29.3439713 2.76354006,32.7854845 1.22321745,37.3780425 L0.156990484,40.5575724 C-0.149145431,41.4716084 -0.00218066151,42.4796073 0.553209456,43.2648153 C1.10872164,44.0500233 2.00430346,44.5156339 2.95786557,44.5156339 L39.6525517,44.5156339 C40.6059917,44.5156339 41.5015736,44.0500233 42.0572078,43.2648153 C42.6125979,42.4796073 42.7594406,41.4716084 42.4534268,40.5575724 L41.3867116,37.3780425 L41.3867116,37.3780425 Z" id="Shape"></path>
                        <path d="M21.3049035,26.1979466 C26.5898982,26.1979466 30.873848,18.4528112 30.873848,11.3238742 C30.873848,4.19493731 26.5898982,0.3819 21.3049035,0.3819 C16.0221059,0.3819 11.737912,4.19493731 11.737912,11.3238742 C11.737912,18.4528112 16.0221059,26.1979466 21.3049035,26.1979466 L21.3049035,26.1979466 Z" id="Shape"></path>
                    </g>
                </g>
            </g>
        </g>
    </g>
</svg>