<?xml version="1.0" encoding="UTF-8" standalone="no"?>
<svg
   xmlns:sketch="http://www.bohemiancoding.com/sketch/ns"
   xmlns:dc="http://purl.org/dc/elements/1.1/"
   xmlns:cc="http://creativecommons.org/ns#"
   xmlns:rdf="http://www.w3.org/1999/02/22-rdf-syntax-ns#"
   xmlns:svg="http://www.w3.org/2000/svg"
   xmlns="http://www.w3.org/2000/svg"
   xmlns:sodipodi="http://sodipodi.sourceforge.net/DTD/sodipodi-0.dtd"
   xmlns:inkscape="http://www.inkscape.org/namespaces/inkscape"
   width="92px"
   height="91px"
   viewBox="0 0 92 91"
   version="1.1"
   id="svg16"
   sodipodi:docname="circle-logo.svg"
   inkscape:version="0.92.3 (2405546, 2018-03-11)"
   inkscape:export-filename="/home/chris/code/Waivecar/logo-brn.png"
   inkscape:export-xdpi="1091.8682"
   inkscape:export-ydpi="1091.8682">
  <metadata
     id="metadata20">
    <rdf:RDF>
      <cc:Work
         rdf:about="">
        <dc:format>image/svg+xml</dc:format>
        <dc:type
           rdf:resource="http://purl.org/dc/dcmitype/StillImage" />
        <dc:title>Group</dc:title>
      </cc:Work>
    </rdf:RDF>
  </metadata>
  <sodipodi:namedview
     objecttolerance="10"
     gridtolerance="10"
     guidetolerance="10"
     inkscape:pageopacity="0"
     inkscape:pageshadow="2"
     inkscape:window-width="2616"
     inkscape:window-height="1495"
     id="namedview18"
     showgrid="true"
     inkscape:zoom="4"
     inkscape:cx="6.056114"
     inkscape:cy="92.694197"
     inkscape:window-x="134"
     inkscape:window-y="0"
     inkscape:window-maximized="0"
     inkscape:current-layer="svg16"
     inkscape:snap-bbox="true"
     inkscape:bbox-paths="true"
     inkscape:bbox-nodes="true"
     inkscape:snap-bbox-edge-midpoints="true"
     inkscape:snap-bbox-midpoints="true"
     inkscape:object-paths="true">
    <inkscape:grid
       type="xygrid"
       id="grid16" />
  </sodipodi:namedview>
  <!-- Generator: Sketch 3.3 (11970) - http://www.bohemiancoding.com/sketch -->
  <title
     id="title2">Group</title>
  <desc
     id="desc4">Created with Sketch.</desc>
  <defs
     id="defs6" />
  <g
     style="fill:none;fill-rule:evenodd;stroke:none;stroke-width:1"
     transform="matrix(0.9993512,0,-0.00118563,1.0071957,-52.183128,-618.75176)"
     sketch:type="MSArtboardGroup"
     id="1-Intro@2x-3"
     inkscape:export-xdpi="1091.8682"
     inkscape:export-ydpi="1091.8682">
    <g
       transform="translate(54,614)"
       sketch:type="MSLayerGroup"
       id="LOGO-6">
      <g
         sketch:type="MSShapeGroup"
         id="Group-7">
        <g
           style="fill:#25c155"
           transform="translate(0,0.207111)"
           id="Clipboard-Copy-5">
          <path
             inkscape:connector-curvature="0"
             id="Shape-3"
             d="M 82.553529,20.077749 C 74.548338,8.0310996 60.789417,0 45.029197,0 20.263139,0 0,20.328721 0,45.174935 0,51.700204 1.250811,57.723528 3.7524331,63.244909 26.556056,76.935286 108.58338,55.09246 82.553529,20.077749 Z"
             sodipodi:nodetypes="csscc"
             style="fill:#353434;fill-opacity:1" />
          <path
             inkscape:connector-curvature="0"
             id="path9-5"
             d="M 87.056448,28.861764 C 70.51159,15.378232 41.801516,81.592846 43.0279,51.449232 26.517876,44.754284 17.4409,82.668442 18.762166,55.715753 L 3.7524331,63.495881 C 10.756975,79.307108 26.517194,90.34987 45.029197,90.34987 c 25.016221,0 45.029198,-20.32872 45.029198,-45.174935 0,-5.772353 -1.000649,-11.293734 -3.001947,-16.313171 z"
             sodipodi:nodetypes="ccccssc"
             style="fill:#353434;fill-opacity:1" />
        </g>
      </g>
    </g>
  </g>
  <g
     style="fill:none;fill-rule:evenodd;stroke:none;stroke-width:1"
     transform="matrix(0.9993512,0,-0.00118563,1.0071957,-52.183146,-618.75176)"
     sketch:type="MSArtboardGroup"
     id="1-Intro@2x"
     inkscape:export-xdpi="1091.8682"
     inkscape:export-ydpi="1091.8682">
    <g
       transform="translate(54,614)"
       sketch:type="MSLayerGroup"
       id="LOGO">
      <g
         sketch:type="MSShapeGroup"
         id="Group">
        <g
           style="fill:#25c155"
           transform="translate(0,0.207111)"
           id="Clipboard-Copy">
          <path
             inkscape:connector-curvature="0"
             id="Shape"
             d="M 31.520438,36.39092 28.268329,51.700204 53.534712,32.124398 52.534064,44.171048 82.553529,20.077749 C 74.548338,8.0310996 60.789417,0 45.029197,0 20.263139,0 0,20.328721 0,45.174935 0,51.700204 1.250811,57.723528 3.7524331,63.244909 Z" />
          <path
             inkscape:connector-curvature="0"
             id="path9"
             d="M 87.056448,28.861764 42.527575,63.746853 43.0279,51.449232 18.011679,71.025037 18.762166,55.715753 3.7524331,63.495881 C 10.756975,79.307108 26.517194,90.34987 45.029197,90.34987 c 25.016221,0 45.029198,-20.32872 45.029198,-45.174935 0,-5.772353 -1.000649,-11.293734 -3.001947,-16.313171 z" />
        </g>
      </g>
    </g>
  </g>
</svg>
