<?xml version="1.0" encoding="UTF-8" standalone="no"?>
<svg width="87px" height="86px" viewBox="0 0 87 86" version="1.1" xmlns="http://www.w3.org/2000/svg" xmlns:xlink="http://www.w3.org/1999/xlink" xmlns:sketch="http://www.bohemiancoding.com/sketch/ns">
    <!-- Generator: Sketch 3.3 (11970) - http://www.bohemiancoding.com/sketch -->
    <title>Imported Layers</title>
    <desc>Created with Sketch.</desc>
    <defs></defs>
    <g id="Page-1" stroke="none" stroke-width="1" fill="none" fill-rule="evenodd" sketch:type="MSPage">
        <g id="nav@2x-" sketch:type="MSArtboardGroup" transform="translate(-505.000000, -287.000000)">
            <g id="items" sketch:type="MSLayerGroup" transform="translate(140.000000, 291.500000)">
                <g id="account" transform="translate(345.500000, 0.000000)" sketch:type="MSShapeGroup">
                    <g id="Imported-Layers" transform="translate(24.000000, 0.000000)">
                        <g>
                            <path d="M32.4808108,55.3286486 C32.4808108,55.3286486 27.6794595,50.5754054 26.632973,44.1840541 C23.8181081,44.1840541 22.0794595,37.3889189 24.8948649,34.9981081 C24.7775676,32.4816216 21.2767568,15.2424324 39,15.2424324 C56.7232432,15.2424324 53.2227027,32.4816216 53.1048649,34.9981081 C55.9202703,37.3889189 54.1816216,44.1840541 51.3667568,44.1840541 C50.3202703,50.5754054 45.5189189,55.3286486 45.5189189,55.3286486 C45.5189189,55.3286486 45.5562162,59.8213514 47.19,60.0813514 C50.2983784,60.5759459 58.4245946,63.8021622 64.5586486,68.3183784 C72.5845946,61.2364865 77.6486486,50.8754054 77.6486486,39.3302703 C77.6486486,17.9851351 60.3451351,0.681621622 39,0.681621622 C17.6548649,0.681621622 0.351351351,17.9851351 0.351351351,39.3302703 C0.351351351,50.8754054 5.41540541,61.2364865 13.4413514,68.3183784 C19.5754054,63.8021622 27.7013514,60.5759459 30.8094595,60.0813514 C32.4435135,59.8213514 32.4808108,55.3286486 32.4808108,55.3286486" id="Fill-1" fill="#25C155"></path>
                            <path d="M76,38.5 C76,58.9346084 59.4346084,75.5 39,75.5 C18.5653916,75.5 2,58.9346084 2,38.5 C2,18.0653916 18.5653916,1.5 39,1.5 C59.4346084,1.5 76,18.0653916 76,38.5 L76,38.5 Z" id="Stroke-2" stroke="#25C155" stroke-width="6"></path>
                        </g>
                    </g>
                </g>
            </g>
        </g>
    </g>
</svg>