<?xml version="1.0" encoding="UTF-8" standalone="no"?>
<svg viewBox="0 0 69 88" version="1.1" xmlns="http://www.w3.org/2000/svg" xmlns:xlink="http://www.w3.org/1999/xlink" xmlns:sketch="http://www.bohemiancoding.com/sketch/ns">
    <!-- Generator: Sketch 3.4.4 (17249) - http://www.bohemiancoding.com/sketch -->
    <title>normal waivecar</title>
    <desc>Created with Sketch.</desc>
    <defs></defs>
    <g id="Core-Flow" stroke="none" stroke-width="1" fill="none" fill-rule="evenodd" sketch:type="MSPage">
        <g id="14.1-WaiveCar-not-available@2x-" sketch:type="MSArtboardGroup" transform="translate(-210.000000, -341.000000)">
            <g id="MAP" sketch:type="MSLayerGroup" transform="translate(0.000000, 41.000000)">
                <g id="waivecars" transform="translate(103.535286, 218.472414)" sketch:type="MSShapeGroup">
                    <g id="waivecar-mark-copy" transform="translate(105.993342, 81.369828)">
                        <g id="normal-waivecar">
                            <g id="waivecar-mark-copy-2">
                                <g id="Group">
                                    <ellipse id="Oval-1-Copy-2" fill="#20E25C" cx="34.6748761" cy="34.6792688" rx="34.0633146" ry="34.0676299"></ellipse>
                                    <g id="Oval-1-+-Shape-+-Shape" transform="translate(7.910843, 7.911845)">
                                        <ellipse id="Oval-1" fill="#FFFFFF" cx="26.4023568" cy="26.4057016" rx="26.4023568" ry="26.4057016"></ellipse>
                                        <path d="M18.4816498,21.2712596 L16.5748129,30.2198585 L31.3894687,18.7773878 L30.8027496,25.8189082 L48.4043208,11.7358674 C43.7105685,4.69434695 35.6431817,0 26.4023568,0 C11.8810606,0 0,11.8825657 0,26.4057016 C0,30.2198585 0.7333988,33.7406187 2.2001964,36.9679822 L18.4816498,21.2712596 L18.4816498,21.2712596 Z" id="Shape" fill="#09CB45"></path>
                                        <path d="M51.0445565,16.8703093 L24.9355592,37.2613789 L25.2289187,30.0731601 L10.5609427,41.5156308 L11.000982,32.5670319 L2.2001964,37.1146805 C6.30722968,46.3566761 15.5480546,52.8114031 26.4023568,52.8114031 C41.0703328,52.8114031 52.8047136,40.9288374 52.8047136,26.4057016 C52.8047136,23.0316397 52.2179946,19.8042762 51.0445565,16.8703093 L51.0445565,16.8703093 Z" id="Shape" fill="#09CB45"></path>
                                    </g>
                                </g>
                            </g>
                            <path d="M44.7689278,87.6024769 L24.330939,87.6024769 L34.5499334,67.161899 L44.7689278,87.6024769 Z" id="Triangle-1" fill="#20E25C" transform="translate(34.549933, 77.382188) rotate(-180.000000) translate(-34.549933, -77.382188) "></path>
                        </g>
                    </g>
                </g>
            </g>
        </g>
    </g>
</svg>