<?xml version="1.0" encoding="UTF-8" standalone="no"?>
<svg viewBox="0 0 80 80" version="1.1" xmlns="http://www.w3.org/2000/svg" xmlns:xlink="http://www.w3.org/1999/xlink" xmlns:sketch="http://www.bohemiancoding.com/sketch/ns">
    <!-- Generator: Sketch 3.4.4 (17249) - http://www.bohemiancoding.com/sketch -->
    <title>email-9-icon</title>
    <desc>Created with Sketch.</desc>
    <defs></defs>
    <g id="Nav" stroke="none" stroke-width="1" fill="none" fill-rule="evenodd" sketch:type="MSPage">
        <g id="13-Nav@2x-" sketch:type="MSArtboardGroup" transform="translate(-181.000000, -942.000000)" fill="#25C155" opacity="0.9">
            <g id="items" sketch:type="MSLayerGroup" transform="translate(147.000000, 326.000000)">
                <g id="contact" transform="translate(16.000000, 616.000000)" sketch:type="MSShapeGroup">
                    <path d="M58,0 C35.9085437,0 18,17.9085437 18,40 C18,62.0914563 35.9085437,80 58,80 C80.0914563,80 98,62.0914563 98,40 C98,17.9085437 80.0914563,0 58,0 L58,0 Z M82.0691262,22.2221359 L58.1951456,40.532233 L34.3592233,22.2221359 L82.0691262,22.2221359 L82.0691262,22.2221359 Z M34.1939806,27.2372816 L48.2380583,38.0254369 L34.1939806,52.0695146 L34.1939806,27.2372816 L34.1939806,27.2372816 Z M34.2524272,57.7776699 L51.4992233,40.5308738 L58.1932039,45.6726214 L64.8763107,40.5471845 L82.1069903,57.7774757 L34.2524272,57.7774757 L34.2524272,57.7776699 Z M82.1941748,52.0984466 L68.1398058,38.0440777 L82.1941748,27.2652427 L82.1941748,52.0984466 L82.1941748,52.0984466 Z" id="email-9-icon"></path>
                </g>
            </g>
        </g>
    </g>
</svg>