<?xml version="1.0" encoding="UTF-8" standalone="no"?>
<svg width="44px" height="28px" viewBox="0 0 44 28" version="1.1" xmlns="http://www.w3.org/2000/svg" xmlns:xlink="http://www.w3.org/1999/xlink" xmlns:sketch="http://www.bohemiancoding.com/sketch/ns">
    <!-- Generator: Sketch 3.3 (11970) - http://www.bohemiancoding.com/sketch -->
    <title>Shape</title>
    <desc>Created with Sketch.</desc>
    <defs></defs>
    <g id="Page-1" stroke="none" stroke-width="1" fill="none" fill-rule="evenodd" sketch:type="MSPage">
        <g id="Book-waivecar@2x" sketch:type="MSArtboardGroup" transform="translate(-49.000000, -1077.000000)" fill="#A9B8AE">
            <g id="CAR-INFO" sketch:type="MSLayerGroup" transform="translate(0.000000, 965.000000)">
                <g id="miles-icon" transform="translate(48.000000, 112.000000)" sketch:type="MSShapeGroup">
                    <path d="M25.0529806,-6.92207286 L20.9471699,-6.92207286 L20.9471699,-8 L9.63636364,-8 L9.63636364,36 L20.9471699,36 L20.9471699,34.9221622 L25.0529806,34.9221622 L25.0529806,36 L36.3636364,36 L36.3636364,-8 L25.0529806,-8 L25.0529806,-6.92207286 L25.0529806,-6.92207286 Z M25.0529806,30.2727531 L20.9471699,30.2727531 L20.9471699,25.6234333 L25.0529806,25.6234333 L25.0529806,30.2727531 L25.0529806,30.2727531 Z M25.0529806,20.9740243 L20.9471699,20.9740243 L20.9471699,16.3247045 L25.0529806,16.3247045 L25.0529806,20.9740243 L25.0529806,20.9740243 Z M25.0529806,11.6753848 L20.9471699,11.6753848 L20.9471699,7.02597571 L25.0529806,7.02597571 L25.0529806,11.6753848 L25.0529806,11.6753848 Z M25.0529806,2.37665595 L20.9471699,2.37665595 L20.9471699,-2.2727531 L25.0529806,-2.2727531 L25.0529806,2.37665595 L25.0529806,2.37665595 Z" id="Shape" transform="translate(23.000000, 14.000000) rotate(-90.000000) translate(-23.000000, -14.000000) "></path>
                </g>
            </g>
        </g>
    </g>
</svg>