<?xml version="1.0" encoding="UTF-8" standalone="no"?>
<svg width="80px" height="80px" viewBox="0 0 80 80" version="1.1" xmlns="http://www.w3.org/2000/svg" xmlns:xlink="http://www.w3.org/1999/xlink" xmlns:sketch="http://www.bohemiancoding.com/sketch/ns">
    <!-- Generator: Sketch 3.3 (11970) - http://www.bohemiancoding.com/sketch -->
    <title>Shape + Shape</title>
    <desc>Created with Sketch.</desc>
    <defs></defs>
    <g id="Page-1" stroke="none" stroke-width="1" fill="none" fill-rule="evenodd" sketch:type="MSPage">
        <g id="nav@2x-" sketch:type="MSArtboardGroup" transform="translate(-174.000000, -292.000000)" fill="#25C155" opacity="0.899999976">
            <g id="items" sketch:type="MSLayerGroup" transform="translate(140.000000, 292.500000)">
                <g id="find-cars" transform="translate(6.000000, 0.000000)" sketch:type="MSShapeGroup">
                    <g id="Shape-+-Shape" transform="translate(28.000000, 0.000000)">
                        <path d="M27.9006279,32.1078654 L25.0219917,45.6153123 L47.3867807,28.343495 L46.5010465,38.9723056 L73.0730731,17.7146844 C65.9871993,7.08587375 53.8083538,0 39.8580399,0 C17.9361179,0 0,17.9361179 0,39.8580399 C0,45.6153123 1.10716777,50.9297176 3.32150332,55.8012558 L27.9006279,32.1078654 L27.9006279,32.1078654 Z" id="Shape"></path>
                        <path d="M76.969697,25.0505051 L37.5545242,55.8297692 L37.9973913,44.979525 L15.8540359,62.2513423 L16.5183365,48.7438954 L3.23232323,55.6083356 C9.43246277,69.5586496 23.3827767,79.301726 39.7688598,79.301726 C61.9122152,79.301726 79.6268996,61.365608 79.6268996,39.4436861 C79.6268996,34.3507144 78.7411654,29.4791761 76.969697,25.0505051 L76.969697,25.0505051 Z" id="Shape"></path>
                    </g>
                </g>
            </g>
        </g>
    </g>
</svg>