<?xml version="1.0" encoding="UTF-8" standalone="no"?>
<svg width="120px" height="120px" viewBox="0 0 120 120" version="1.1" xmlns="http://www.w3.org/2000/svg" xmlns:xlink="http://www.w3.org/1999/xlink" xmlns:sketch="http://www.bohemiancoding.com/sketch/ns">
    <!-- Generator: Sketch 3.3.3 (12072) - http://www.bohemiancoding.com/sketch -->
    <title>Oval 1 + Shape + Path</title>
    <desc>Created with Sketch.</desc>
    <defs></defs>
    <g id="Vision" stroke="none" stroke-width="1" fill="none" fill-rule="evenodd" sketch:type="MSPage">
        <g id="36-Our-vision@2x" sketch:type="MSArtboardGroup" transform="translate(-309.000000, -999.000000)">
            <g id="ICONS" sketch:type="MSLayerGroup" transform="translate(60.000000, 995.000000)">
                <g id="icons" transform="translate(14.000000, 1.000000)" sketch:type="MSShapeGroup">
                    <g id="fuel-icon" transform="translate(235.000000, 2.000000)">
                        <g id="Oval-1-+-Shape-+-Path">
                            <circle id="Oval-1" fill="#25C155" cx="60" cy="61" r="60"></circle>
                            <g id="Shape-+-Path" transform="translate(35.000000, 29.000000)" fill="#FFFFFF">
                                <path d="M45.0758204,7.64494393 L45.0758204,6.30644041 C45.0758204,2.82897688 42.2185538,1.42108547e-14 38.7063156,1.42108547e-14 L28.8671396,1.42108547e-14 C25.3549014,1.42108547e-14 22.4976347,2.82897688 22.4976347,6.30644041 L22.4976347,7.64494393 L18.7144596,7.64494393 C18.0964623,7.64494393 17.503943,7.88797261 17.0664667,8.32050213 L4.4340298,20.8281731 C3.99717498,21.2610102 3.75171601,21.847663 3.75171601,22.4598492 L3.75171601,58.6099037 C3.75171601,60.4790712 5.28754344,62 7.17571323,62 L45.3806245,62 C47.2684836,62 48.8046217,60.4793788 48.8046217,58.6099037 L48.8046217,11.0347326 C48.8040003,9.16556515 45.0758204,7.64494393 45.0758204,7.64494393 Z M27.1579373,6.30644041 C27.1579373,5.37370249 27.9247635,4.61446859 28.8668288,4.61446859 L38.7060049,4.61446859 C39.6480702,4.61446859 40.4148964,5.37370249 40.4148964,6.30644041 L40.4148964,7.64494393 L27.1579373,7.64494393 L27.1579373,6.30644041 L27.1579373,6.30644041 Z M2.47097948,15.8033244 L0.682546815,14.0322914 C-0.227515605,13.1312395 -0.227515605,11.6702987 0.682546815,10.7695544 L7.44043607,4.07857497 C7.87760159,3.64604545 8.47012089,3.40301677 9.08842892,3.40301677 C9.70642624,3.40301677 10.2992563,3.64604545 10.7364218,4.0788826 L12.5248544,5.84991565 C13.4349169,6.75096755 13.4349169,8.21190831 12.5248544,9.11265258 L5.76696519,15.803632 C5.32948896,16.2361616 4.73696966,16.4791902 4.11897234,16.4791902 C3.50097502,16.4791902 2.90814501,16.2361616 2.47097948,15.8033244 Z" id="Shape"></path>
                                <path d="M17.0898083,8 L49.7027665,8 L49.5806652,63.1111111 L3,63.1111111 L3,22.4834406 L17.0898083,8 Z" id="Path"></path>
                            </g>
                        </g>
                    </g>
                </g>
            </g>
        </g>
    </g>
</svg>