<?xml version="1.0"?>
<svg width="69" height="88" xmlns="http://www.w3.org/2000/svg" xmlns:svg="http://www.w3.org/2000/svg">
 <g>
  <g fill-rule="evenodd" fill="none" id="Core-Flow">
   <g id="14.1-WaiveCar-not-available@2x-">
    <g id="MAP">
     <g id="waivecars">
      <g id="waivecar-mark-copy">
       <g id="normal-waivecar">
        <g id="waivecar-mark-copy-2">
         <g id="Group">
          <ellipse ry="34.06763" rx="34.063315" cy="34.521508" cx="34.203502" fill="#20E25C" id="Oval-1-Copy-2"/>
          <g id="Oval-1-+-Shape-+-Shape">
           <ellipse ry="26.405702" rx="26.402357" cy="34.159786" cx="33.841825" fill="#FFFFFF" id="Oval-1"/>
           <path fill="#09CB45" id="Shape" d="m25.921118,29.025345l-1.90684,8.9486l14.81466,-11.44247l-0.58672,7.04152l17.60157,-14.08304c-4.69375,-7.04152 -12.76114,-11.73587 -22.00196,-11.73587c-14.5213,0 -26.40236,11.88257 -26.40236,26.4057c0,3.81416 0.7334,7.33492 2.2002,10.56228l16.28145,-15.69672l0,0z"/>
           <path fill="#09CB45" id="Shape" d="m58.484028,24.624395l-26.109,20.39107l0.29336,-7.18822l-14.66798,11.44247l0.44004,-8.9486l-8.80078,4.54765c4.10703,9.242 13.34785,15.69672 24.20216,15.69672c14.66797,0 26.40235,-11.88256 26.40235,-26.4057c0,-3.37406 -0.58672,-6.60142 -1.76015,-9.53539l0,0z"/>
          </g>
         </g>
        </g>
        <path transform="rotate(-180 34.07855987548829,77.22442626953125) translate(-34.54993438720703,-77.38218688964844) " fill="#20E25C" id="Triangle-1" d="m78.84749,164.826906l-20.43799,0l10.21899,-20.44058l10.219,20.44058z"/>
       </g>
      </g>
     </g>
    </g>
   </g>
  </g>
 </g>
</svg>
