<?xml version="1.0" encoding="UTF-8" standalone="no"?>
<svg
   xmlns:dc="http://purl.org/dc/elements/1.1/"
   xmlns:cc="http://creativecommons.org/ns#"
   xmlns:rdf="http://www.w3.org/1999/02/22-rdf-syntax-ns#"
   xmlns:svg="http://www.w3.org/2000/svg"
   xmlns="http://www.w3.org/2000/svg"
   xmlns:sodipodi="http://sodipodi.sourceforge.net/DTD/sodipodi-0.dtd"
   xmlns:inkscape="http://www.inkscape.org/namespaces/inkscape"
   width="35.986485"
   height="47.299999"
   viewBox="0 0 35.986484 47.299999"
   version="1.1"
   id="svg16"
   sodipodi:docname="icon-station-active.svg"
   inkscape:version="0.92.3 (2405546, 2018-03-11)">
  <metadata
     id="metadata20">
    <rdf:RDF>
      <cc:Work
         rdf:about="">
        <dc:format>image/svg+xml</dc:format>
        <dc:type
           rdf:resource="http://purl.org/dc/dcmitype/StillImage" />
      </cc:Work>
    </rdf:RDF>
  </metadata>
  <sodipodi:namedview
     pagecolor="#ffffff"
     bordercolor="#666666"
     borderopacity="1"
     objecttolerance="10"
     gridtolerance="10"
     guidetolerance="10"
     inkscape:pageopacity="0"
     inkscape:pageshadow="2"
     inkscape:window-width="2174"
     inkscape:window-height="1205"
     id="namedview18"
     showgrid="false"
     inkscape:zoom="5.8044244"
     inkscape:cx="-42.853423"
     inkscape:cy="-9.419706"
     inkscape:window-x="28"
     inkscape:window-y="55"
     inkscape:window-maximized="0"
     inkscape:current-layer="svg16" />
  <!-- Generator: Sketch 3.4.3 (16044) - http://www.bohemiancoding.com/sketch -->
  <title
     id="title2">plug</title>
  <desc
     id="desc4">Created with Sketch.</desc>
  <defs
     id="defs6" />
  <path
     style="fill:#50a05f;fill-opacity:1;fill-rule:evenodd;stroke:#ffffff;stroke-width:1.29999995;stroke-miterlimit:4;stroke-dasharray:none;stroke-opacity:1"
     d="m 35.054482,13.552439 c -0.188002,-0.311622 -0.407307,-0.46748 -0.658009,-0.46748 H 29.602406 V 2.519919 c 0,-0.498614 -0.188003,-0.93496 -0.564008,-1.308943 -0.376005,-0.37398402 -0.830314,-0.56097602 -1.363019,-0.56097602 -0.532706,0 -0.987014,0.186992 -1.363019,0.56097602 -0.376006,0.373983 -0.564008,0.810329 -0.564008,1.308943 v 10.56504 H 10.332136 V 2.519919 c 0,-0.498614 -0.188003,-0.93496 -0.564008,-1.308943 C 9.392123,0.83699198 8.937815,0.64999998 8.405109,0.64999998 c -0.532705,0 -0.987014,0.186992 -1.363019,0.56097602 C 6.666085,1.584959 6.478082,2.021305 6.478082,2.519919 v 10.56504 H 1.684015 c -0.250702,0 -0.485705,0.155858 -0.70501002,0.46748 -0.219305,0.311622 -0.329005,0.623337 -0.329005,0.934959 v 4.581301 c 0,1.184313 0.50130902,2.617886 1.50402102,4.300813 1.002713,1.682927 2.11503,3.272358 3.337047,4.768293 1.222017,1.495935 2.334335,3.319106 3.337047,5.469512 1.002712,2.150407 1.504021,4.222931 1.504021,6.21748 v 2.99187 H 14.18619 V 46.65 h 7.708108 v -3.833333 h 3.854054 v -2.99187 c 0,-1.994549 0.501309,-4.067073 1.504021,-6.21748 1.002712,-2.150406 2.099331,-3.973577 3.290046,-5.469512 1.190715,-1.495935 2.287334,-3.085366 3.290046,-4.768293 1.002712,-1.682927 1.504021,-3.1165 1.504021,-4.300813 v -4.581301 c 0,-0.312089 -0.094,-0.623804 -0.282004,-0.934959 z"
     id="Shape"
     inkscape:connector-curvature="0" />
</svg>
