<?xml version="1.0" encoding="UTF-8" standalone="no"?>
<svg width="638px" height="91px" viewBox="0 0 638 91" version="1.1" xmlns="http://www.w3.org/2000/svg" xmlns:xlink="http://www.w3.org/1999/xlink" xmlns:sketch="http://www.bohemiancoding.com/sketch/ns">
    <!-- Generator: Sketch 3.3 (11970) - http://www.bohemiancoding.com/sketch -->
    <title>Group</title>
    <desc>Created with Sketch.</desc>
    <defs></defs>
    <g id="Intro---Sign-In---Registration" stroke="none" stroke-width="1" fill="none" fill-rule="evenodd" sketch:type="MSPage">
        <g id="1-Intro@2x" sketch:type="MSArtboardGroup" transform="translate(-54.000000, -614.000000)">
            <g id="LOGO" sketch:type="MSLayerGroup" transform="translate(54.000000, 614.000000)">
                <g id="Group" sketch:type="MSShapeGroup">
                    <g id="Clipboard-Copy" transform="translate(0.000000, 0.207111)" fill="#25C155">
                        <path d="M31.5204382,36.39092 L28.2683295,51.7002036 L53.5347125,32.1243984 L52.5340636,44.1710478 L82.5535286,20.077749 C74.5483379,8.03109959 60.7894165,-3.55271368e-15 45.0291974,-3.55271368e-15 C20.2631388,-3.55271368e-15 0,20.3287208 0,45.1749352 C0,51.7002036 1.25081104,57.7235283 3.75243312,63.2449093 L31.5204382,36.39092 L31.5204382,36.39092 Z" id="Shape"></path>
                        <path d="M87.0564483,28.8617642 L42.5275753,63.746853 L43.0278997,51.4492318 L18.011679,71.025037 L18.7621656,55.7157534 L3.75243312,63.4958812 C10.7569749,79.3071085 26.517194,90.3498704 45.0291974,90.3498704 C70.0454182,90.3498704 90.0583948,70.0211496 90.0583948,45.1749352 C90.0583948,39.4025824 89.057746,33.8812014 87.0564483,28.8617642 L87.0564483,28.8617642 Z" id="Shape"></path>
                    </g>
                    <g id="waivecar" transform="translate(130.775641, 18.686841)">
                        <path d="M0.778311966,1.51962172 L0.551613248,0.612826851 L2.13850427,0.612826851 L2.28963675,1.21735677 L13.7757051,50.1087136 L31.0803739,1.14179053 L31.2315064,0.612826851 L32.2894338,0.612826851 L32.4405662,1.14179053 L49.745235,50.1087136 L61.2313034,1.21735677 L61.3824359,0.612826851 L62.9693269,0.612826851 L62.7426282,1.51962172 L50.6520299,52.9046645 L50.5008974,53.5091944 L49.3674038,53.5091944 L49.2162714,52.9802307 L31.7604701,3.63547642 L14.3046688,52.9802307 L14.1535363,53.5091944 L13.0200427,53.5091944 L12.8689103,52.9046645 L0.778311966,1.51962172 Z" id="W" fill="#FFFFFF"></path>
                        <path d="M94.6590598,40.9817432 L93.9033974,40.9817432 L93.9033974,40.1222095 L88.084797,53.2990402 L87.9336645,53.7524376 L86.2712073,53.7524376 L86.7246047,52.6945103 L109.394476,1.30946753 L109.545609,0.856070095 L110.603536,0.856070095 L110.754669,1.30946753 L133.424541,52.6945103 L133.877938,53.7524376 L132.215481,53.7524376 L132.064348,53.2990402 L126.094615,39.7799545 L126.094615,40.9817432 L125.338953,40.9817432 L94.6590598,40.9817432 Z M125.957933,39.4704184 L110.074573,3.50088847 L94.1912147,39.4704184 L94.6590598,39.4704184 L125.338953,39.4704184 L125.957933,39.4704184 Z" id="A" fill="#FFFFFF"></path>
                        <path d="M482.726047,28.2375286 L482.081753,27.5529655 L470.182051,27.6992736 L470.182051,52.6454239 L470.182051,53.4010863 L468.670726,53.4010863 L468.670726,52.6454239 L468.707452,27.7085649 L468.670726,27.7085649 L468.670726,26.1972401 L468.709679,26.1972401 C468.721883,17.9101433 468.734088,9.62304649 468.746293,1.33594738 L468.746293,0.580284983 L469.501955,0.580284983 L490.962767,0.504718743 C502.071004,0.504718743 506.529412,6.92784909 506.453846,14.2577743 C506.529412,20.9831696 496.403536,27.4818662 487.864551,27.4818662 L484.1027,27.5281196 C492.985176,37.1899959 495.459853,35.6164676 505.093654,52.4942914 L505.698184,53.627785 L503.96016,53.627785 L503.733462,53.2499538 C494.892212,37.6833085 492.776357,39.3457658 482.726047,28.2375286 L482.726047,28.2375286 Z M470.182051,26.1879488 L487.864551,25.9705414 C495.950139,25.9705414 505.018088,20.2275072 504.942521,14.2577743 C505.018088,7.38124652 501.390908,2.09160977 490.962767,2.01604353 L470.182051,2.01604353 L470.182051,26.1879488 Z" id="R" fill="#25C155"></path>
                        <path d="M367.968408,41.4616205 L368.195107,41.0837893 L369.93313,41.0837893 L369.3286,42.2172828 C368.497372,43.5774752 367.515011,44.786535 366.53265,45.9955948 L366.457083,45.9955948 C362.376506,50.6051354 356.557906,53.4766525 349.908077,53.4010863 C337.364081,53.4010863 327.162639,41.5371867 327.087073,26.9529025 C327.087073,12.4441846 337.439647,0.580284983 349.983643,0.504718743 C356.028942,0.504718743 361.998675,3.3006696 366.230385,7.9102102 L366.305951,7.9102102 C367.288312,9.11927003 368.270673,10.4794623 369.101902,11.8396546 L369.706432,12.9731482 L367.968408,12.9731482 L367.741709,12.595317 C367.061613,11.2351247 366.079252,10.0260649 365.172457,8.96813755 C361.09188,4.50972943 355.802244,2.09160977 349.983643,2.01604353 C338.119744,2.01604353 328.673964,13.1242807 328.598397,26.9529025 C328.598397,40.8570905 338.19531,51.9653277 349.908077,51.8897615 C356.180075,51.8897615 361.469712,49.3960756 365.32359,44.9376675 C366.305951,43.8797401 367.288312,42.6706803 367.968408,41.4616205 L367.968408,41.4616205 Z" id="C" fill="#25C155"></path>
                        <path d="M299.471047,0.504718743 L300.226709,0.504718743 L300.226709,2.01604353 L299.471047,2.01604353 L265.466239,2.01604353 L265.466239,26.1972401 L290.100833,26.1972401 L290.856496,26.1972401 L290.856496,27.7085649 L290.100833,27.7085649 L265.466239,27.7085649 L265.466239,51.8897615 L299.471047,51.8897615 L300.226709,51.8897615 L300.226709,53.4010863 L299.471047,53.4010863 L264.710577,53.4010863 L263.954915,53.4010863 L263.954915,52.6454239 L263.954915,27.7085649 L263.954915,26.1972401 L263.954915,1.26038114 L263.954915,0.504718743 L264.710577,0.504718743 L299.471047,0.504718743 Z" id="E" fill="#FFFFFF"></path>
                        <path d="M188.052062,1.56264609 L187.598665,0.504718743 L189.261122,0.504718743 L189.412254,0.958116179 L209.966271,50.6807016 L230.369156,0.958116179 L230.520288,0.504718743 L232.182746,0.504718743 L231.729348,1.56264609 L210.646368,52.9476888 L210.495235,53.4010863 L209.437308,53.4010863 L209.286175,52.9476888 L188.052062,1.56264609 Z" id="V" fill="#FFFFFF"></path>
                        <path d="M157.55078,1.26038114 L157.55078,0.504718743 L159.062105,0.504718743 L159.062105,1.26038114 L159.062105,52.6454239 L159.062105,53.4010863 L157.55078,53.4010863 L157.55078,52.6454239 L157.55078,1.26038114 Z" id="I" fill="#FFFFFF"></path>
                        <path d="M401.389295,40.6303918 L400.633632,40.6303918 L400.633632,39.7708581 L394.815032,52.9476888 L394.6639,53.4010863 L393.001442,53.4010863 L393.45484,52.3431589 L416.124712,0.958116179 L416.275844,0.504718743 L417.333771,0.504718743 L417.484904,0.958116179 L440.154776,52.3431589 L440.608173,53.4010863 L438.945716,53.4010863 L438.794583,52.9476888 L432.82485,39.4286031 L432.82485,40.6303918 L432.069188,40.6303918 L401.389295,40.6303918 Z M432.688168,39.119067 L416.804808,3.14953712 L400.92145,39.119067 L401.389295,39.119067 L432.069188,39.119067 L432.688168,39.119067 Z" id="A" fill="#25C155"></path>
                    </g>
                </g>
            </g>
        </g>
    </g>
</svg>