<?xml version="1.0" encoding="UTF-8" standalone="no"?>
<svg width="634px" height="97px" viewBox="0 0 634 97" version="1.1" xmlns="http://www.w3.org/2000/svg" xmlns:xlink="http://www.w3.org/1999/xlink" xmlns:sketch="http://www.bohemiancoding.com/sketch/ns">
    <!-- Generator: Sketch 3.4.3 (16044) - http://www.bohemiancoding.com/sketch -->
    <title>LOGO</title>
    <desc>Created with Sketch.</desc>
    <defs>
        <path id="path-1" d="M0,0.718984733 L633.620044,0.718984733 L633.620044,97 L0,97"></path>
        <path id="path-3" d="M0,0.718984733 L633.620044,0.718984733 L633.620044,97 L0,97 L0,0.718984733 Z"></path>
    </defs>
    <g id="Intro---Sign-In---Registration" stroke="none" stroke-width="1" fill="none" fill-rule="evenodd" sketch:type="MSPage">
        <g id="1-Intro@2x" sketch:type="MSArtboardGroup" transform="translate(-58.000000, -619.000000)">
            <g id="LOGO" sketch:type="MSLayerGroup" transform="translate(58.000000, 619.000000)">
                <path d="M33.707247,39.4989924 L30.2298755,55.8135038 L57.2489409,34.9525802 L56.1786956,47.7899008 L88.2808708,22.1145191 C79.7203895,9.27719847 65.006553,0.718984733 48.1529666,0.718984733 C21.6686535,0.718984733 7.40654206e-05,22.3825649 7.40654206e-05,48.8598626 C7.40654206e-05,55.8135038 1.33769556,62.2317939 4.01293855,68.1154733 L33.707247,39.4989924 Z" id="Fill-1" fill="#25C155" sketch:type="MSShapeGroup"></path>
                <g id="Group-5">
                    <mask id="mask-2" sketch:name="Clip 4" fill="white">
                        <use xlink:href="#path-1"></use>
                    </mask>
                    <g id="Clip-4"></g>
                    <path d="M93.09616,31.4754634 L45.4780199,68.6508985 L46.0127722,55.5455321 L19.2610829,76.4064557 L20.0639521,60.0919443 L4.01249416,68.3828527 C11.5034708,85.2319748 28.3570572,97.000074 48.1532629,97.000074 C74.9049521,97.000074 96.3061554,75.3372344 96.3061554,48.8599366 C96.3061554,42.7082115 95.23591,36.8245321 93.09616,31.4754634" id="Fill-3" fill="#25C155" sketch:type="MSShapeGroup" mask="url(#mask-2)"></path>
                </g>
                <path d="M197.964352,30.2320863 L194.634371,18.5535824 L190.987389,30.2320863 L173.755329,84.4506435 L162.496644,84.4506435 L140.137034,7.50891069 L149.969219,7.50891069 L166.354712,66.0065748 L168.363366,74.4626053 L170.68902,66.8003458 L190.140822,7.50891069 L199.708593,7.50891069 L218.684894,66.2190863 L221.115721,74.4092924 L223.019203,66.9054908 L239.458023,7.50891069 L248.972467,7.50891069 L226.613597,84.4506435 L215.407499,84.4506435 L197.964352,30.2320863 Z" id="Fill-6" fill="#FFFFFF" sketch:type="MSShapeGroup"></path>
                <path d="M277.938786,78.6901763 C280.405164,78.6901763 282.721931,78.1881458 284.889826,77.1840847 C287.05698,76.1792832 288.959721,74.6998481 290.598048,72.7450389 C292.237115,70.7894893 293.539926,68.3585656 294.510183,65.4530084 C295.478959,62.5459702 295.980382,59.190955 296.015933,55.3857412 C296.015933,52.532016 295.584132,49.9256038 294.72127,47.5650237 C293.857667,45.205184 292.633365,43.1615198 291.047625,41.4347718 C289.461884,39.7087641 287.53248,38.370016 285.259412,37.4185275 C282.986344,36.4677794 280.439975,35.9916649 277.621786,35.9916649 C275.471667,35.9916649 273.533375,36.2826649 271.80691,36.8639244 C270.080445,37.445184 268.547291,38.2471 267.208188,39.2681916 C265.869085,40.2907641 264.706258,41.4873443 263.719707,42.8616344 C262.733155,44.2359244 261.922139,45.7072145 261.288879,47.2740237 C260.654139,48.8423137 260.186786,50.4713214 259.887562,52.1625275 C259.587597,53.8537336 259.437985,55.5271687 259.437985,57.1820924 C259.437985,58.8036954 259.552045,60.468245 259.781648,62.1757412 C260.01051,63.8854588 260.389725,65.5314969 260.918552,67.117558 C261.446639,68.7028786 262.168777,70.2000847 263.085707,71.6091763 C264.001896,73.0182679 265.138059,74.2429855 266.494938,75.2811076 C267.851076,76.3214511 269.472368,77.1492832 271.358073,77.7653443 C273.242298,78.3821458 275.436115,78.6901763 277.938786,78.6901763 M276.934459,28.9106649 C279.1542,28.9106649 281.179889,29.1135504 283.013008,29.5185809 C284.844646,29.9243519 286.5363,30.4959855 288.08723,31.2364435 C289.637419,31.9761611 291.06466,32.8921076 292.368952,33.9842832 C293.672503,35.0764588 294.887917,36.3093214 296.015933,37.682871 L296.332933,30.2323824 L304.948964,30.2323824 L304.737877,43.6013519 L304.737877,84.4501992 L296.015933,84.4501992 L296.121847,76.8405122 C295.27602,77.9682298 294.210218,79.0692908 292.923702,80.1436954 C291.637186,81.2181 290.183281,82.1607031 288.563471,82.9707641 C286.942179,83.7808252 285.153499,84.4331687 283.198171,84.9255733 C281.242104,85.4187183 279.18901,85.6652908 277.040372,85.6652908 C274.008875,85.6652908 271.260307,85.2691458 268.793929,84.4761153 C266.32755,83.6838252 264.124844,82.5923901 262.186552,81.200329 C260.24826,79.8090084 258.566235,78.1800008 257.138994,76.3118252 C255.711753,74.445871 254.540038,72.4370084 253.623849,70.2874588 C252.70766,68.1393901 252.019592,65.9106115 251.562608,63.6033443 C251.104143,61.2960771 250.875281,59.014726 250.875281,56.7600313 C250.875281,53.2717336 251.412256,49.8552603 252.487686,46.5083901 C253.561634,43.1615198 255.182926,40.1848786 257.350821,37.577726 C259.517235,34.9705733 262.230992,32.8743366 265.490611,31.289016 C268.749489,29.7036954 272.564599,28.9106649 276.934459,28.9106649" id="Fill-8" fill="#FFFFFF" sketch:type="MSShapeGroup"></path>
                <mask id="mask-4" sketch:name="Clip 11" fill="white">
                    <use xlink:href="#path-3"></use>
                </mask>
                <g id="Clip-11"></g>
                <path d="M329.263752,15.3830153 L321.176549,15.3830153 L321.176549,7.1920687 L329.263752,7.1920687 L329.263752,15.3830153 Z M320.753636,30.2321603 L329.474839,30.2321603 L329.474839,84.4507176 L320.753636,84.4507176 L320.753636,30.2321603 Z" id="Fill-10" fill="#FFFFFF" sketch:type="MSShapeGroup" mask="url(#mask-4)"></path>
                <path d="M339.253918,30.2320863 L348.874276,30.2320863 L363.727355,66.6937198 C363.973253,67.2942313 364.273218,68.0954069 364.625769,69.0987275 C364.97758,70.1027885 365.313096,71.1164756 365.630096,72.1375672 C366.017458,73.3000863 366.405561,74.5336893 366.792923,75.8368954 C367.144734,74.5684908 367.515061,73.3526588 367.903164,72.1901397 C368.220904,71.2045901 368.537904,70.200529 368.854164,69.1786969 C369.171164,68.1568649 369.470388,67.3290328 369.752577,66.6937198 L384.341243,30.2320863 L393.697928,30.2320863 L370.810232,84.4506435 L361.930528,84.4506435 L339.253918,30.2320863 Z" id="Fill-12" fill="#FFFFFF" sketch:type="MSShapeGroup" mask="url(#mask-4)"></path>
                <path d="M441.957178,52.2679687 L441.904592,51.5282511 C441.728316,49.238755 441.28022,47.1425183 440.558823,45.2395412 C439.837426,43.3373046 438.843468,41.6994115 437.576949,40.3251214 C436.30969,38.9515718 434.771351,37.8860527 432.95897,37.1278237 C431.146589,36.3710756 429.09794,35.9919611 426.812281,35.9919611 C424.349606,35.9919611 422.132087,36.4236481 420.161947,37.2870221 C418.191807,38.1503962 416.494227,39.3210603 415.069949,40.8004954 C413.644931,42.280671 412.493213,44.0066786 411.613316,45.9792588 C410.73416,47.9525794 410.135711,50.0480756 409.819452,52.2679687 L441.957178,52.2679687 Z M448.987468,78.3735565 C446.061884,80.9096252 442.82004,82.7592893 439.261197,83.9210679 C435.702354,85.083587 431.667269,85.665587 427.157426,85.665587 C422.892739,85.665587 419.087258,84.9695565 415.740241,83.5782359 C412.391744,82.1869153 409.563926,80.2491366 407.255307,77.7656405 C404.947428,75.2814038 403.185412,72.3136481 401.969998,68.8608924 C400.754585,65.4088771 400.146508,61.6214344 400.146508,57.4993046 C400.146508,53.5889458 400.744956,49.908129 401.944075,46.4546328 C403.141713,43.0026176 404.885213,39.9734038 407.176797,37.3662511 C409.4669,34.7590985 412.259167,32.6984038 415.555078,31.1826863 C418.849508,29.6684496 422.61129,28.9109611 426.839685,28.9109611 C430.997718,28.9109611 434.609889,29.5899611 437.676197,30.9457397 C440.741024,32.3022588 443.26073,34.1689534 445.234573,36.5473046 C447.207676,38.9249153 448.678615,41.751984 449.648132,45.0285107 C450.616907,48.3042969 451.102036,51.8636786 451.102036,55.7029534 C451.102036,56.0909534 451.092407,56.5404115 451.075372,57.050587 C451.056856,57.5607626 451.030933,58.0279916 450.996122,58.4507931 L409.449125,58.4507931 L409.607625,60.8291443 C409.818711,63.4710985 410.355685,65.8842511 411.217807,68.0686023 C412.079928,70.2529534 413.267938,72.1374191 414.781094,73.7227397 C416.294251,75.3073198 418.132554,76.5327779 420.296005,77.3961519 C422.460197,78.259526 424.932501,78.6904725 427.712176,78.6904725 C431.442111,78.6904725 434.855045,78.0388695 437.95172,76.7349229 C441.047655,75.4317168 443.82733,73.5642817 446.292227,71.1340985 L448.987468,78.3735565 Z" id="Fill-13" fill="#FFFFFF" sketch:type="MSShapeGroup" mask="url(#mask-4)"></path>
                <path d="M518.971439,19.9802969 C513.580218,15.9292511 507.289841,13.9026176 500.100311,13.9026176 C496.858468,13.9026176 493.898073,14.3357855 491.220608,15.1991595 C488.542402,16.063274 486.137498,17.2620756 484.005895,18.7948237 C481.872811,20.3297931 480.022657,22.1357702 478.455432,24.2157168 C476.887468,26.2964038 475.583175,28.5533198 474.544038,30.9857244 C473.504159,33.4188695 472.728694,35.9845565 472.218383,38.6813046 C471.707332,41.3787931 471.451806,44.0844267 471.451806,46.7996863 C471.451806,50.9603198 471.997668,54.9180679 473.090874,58.6729305 C474.181858,62.4277931 475.856477,65.7243122 478.111769,68.5632282 C480.367061,71.4014038 483.220802,73.6590603 486.675213,75.3324954 C490.128143,77.006671 494.215073,77.844129 498.938225,77.844129 C503.272533,77.844129 507.351316,77.2191824 511.175313,75.9685489 C514.99783,74.7186557 518.354475,72.8245641 521.243767,70.287755 L524.310075,77.7382435 C521.03268,80.3809382 517.156096,82.3631443 512.681063,83.6841214 C508.206031,85.0050985 503.166619,85.6648466 497.564311,85.6648466 C491.749435,85.6648466 486.621886,84.6430145 482.181664,82.6008313 C477.742182,80.5571672 474.006323,77.7656405 470.975566,74.2240298 C467.944809,70.6839 465.654706,66.5625107 464.104517,61.8591214 C462.553587,57.1564725 461.778862,52.1280221 461.778862,46.7722893 C461.778862,43.144045 462.157337,39.6209458 462.915026,36.2037321 C463.672715,32.7865183 464.782956,29.5714496 466.245748,26.5592664 C467.707059,23.5470832 469.513514,20.782213 471.662893,18.2624344 C473.812271,15.7441366 476.270503,13.5857015 479.036846,11.7893504 C481.802449,9.99299924 484.859129,8.59205267 488.207626,7.5879916 C491.554643,6.58393053 495.18533,6.0819 499.096725,6.0819 C503.888757,6.0819 508.169739,6.72091527 511.94115,7.99820534 C515.71182,9.27549542 519.200302,11.3317473 522.407334,14.1669611 L518.971439,19.9802969 Z" id="Fill-14" fill="#25C155" sketch:type="MSShapeGroup" mask="url(#mask-4)"></path>
                <path d="M561.786141,78.6901763 C564.251779,78.6901763 566.570026,78.1881458 568.737181,77.1840847 C570.904335,76.1792832 572.807075,74.6998481 574.445403,72.7450389 C576.08447,70.7894893 577.387281,68.3585656 578.356797,65.4530084 C579.326314,62.5459702 579.827737,59.190955 579.863288,55.3857412 C579.863288,52.532016 579.431487,49.9256038 578.568625,47.5650237 C577.704281,45.205184 576.48072,43.1615198 574.89498,41.4347718 C573.309239,39.7087641 571.379835,38.370016 569.106767,37.4185275 C566.833699,36.4677794 564.288071,35.9916649 561.4684,35.9916649 C559.319022,35.9916649 557.38073,36.2826649 555.655005,36.8639244 C553.9278,37.445184 552.394646,38.2471 551.056283,39.2681916 C549.71644,40.2907641 548.553613,41.4873443 547.567061,42.8616344 C546.58051,44.2359244 545.770234,45.7072145 545.136234,47.2740237 C544.501494,48.8423137 544.034141,50.4713214 543.734917,52.1625275 C543.435692,53.8537336 543.285339,55.5271687 543.285339,57.1820924 C543.285339,58.8036954 543.400141,60.468245 543.629003,62.1757412 C543.857865,63.8854588 544.23708,65.5314969 544.765907,67.117558 C545.293994,68.7028786 546.016132,70.2000847 546.932321,71.6091763 C547.849251,73.0182679 548.985414,74.2429855 550.342293,75.2811076 C551.698431,76.3214511 553.319723,77.1492832 555.204688,77.7653443 C557.089653,78.3821458 559.28347,78.6901763 561.786141,78.6901763 M560.781814,28.9106649 C563.002295,28.9106649 565.027984,29.1135504 566.861104,29.5185809 C568.692001,29.9243519 570.383655,30.4959855 571.934585,31.2364435 C573.484774,31.9761611 574.912755,32.8921076 576.216307,33.9842832 C577.519118,35.0764588 578.735272,36.3093214 579.863288,37.682871 L580.181029,30.2323824 L588.797059,30.2323824 L588.585232,43.6013519 L588.585232,84.4501992 L579.863288,84.4501992 L579.969202,76.8405122 C579.123375,77.9682298 578.057573,79.0692908 576.771057,80.1436954 C575.48454,81.2181 574.030636,82.1607031 572.410825,82.9707641 C570.788793,83.7808252 569.000854,84.4331687 567.045526,84.9255733 C565.089459,85.4187183 563.036365,85.6652908 560.887727,85.6652908 C557.85623,85.6652908 555.107662,85.2691458 552.641283,84.4761153 C550.174164,83.6838252 547.972199,82.5923901 546.033907,81.200329 C544.095615,79.8090084 542.413589,78.1800008 540.986349,76.3118252 C539.559108,74.445871 538.387393,72.4370084 537.471204,70.2874588 C536.555015,68.1393901 535.867688,65.9106115 535.409963,63.6033443 C534.951498,61.2960771 534.722636,59.014726 534.722636,56.7600313 C534.722636,53.2717336 535.259611,49.8552603 536.33504,46.5083901 C537.40973,43.1615198 539.030281,40.1848786 541.197435,37.577726 C543.36533,34.9705733 546.078346,32.8743366 549.337966,31.289016 C552.596844,29.7036954 556.411954,28.9106649 560.781814,28.9106649" id="Fill-15" fill="#25C155" sketch:type="MSShapeGroup" mask="url(#mask-4)"></path>
                <path d="M613.322416,84.4504214 L604.601213,84.4504214 L604.601213,43.284658 C604.601213,41.0647649 604.565661,38.8456122 604.495299,36.6264595 C604.424196,34.4065664 604.354575,32.2755282 604.284213,30.2318641 L613.005416,30.2318641 L613.322416,38.4228107 C614.802984,35.4283985 616.811638,33.1033603 619.349119,31.4469557 C621.88586,29.7920321 624.70479,28.9634595 627.805909,28.9634595 C629.848633,28.9634595 631.752114,29.1752305 633.514871,29.5980321 L633.620044,37.7882382 C632.880131,37.4009786 631.981717,37.0929481 630.924804,36.8641466 C629.86715,36.635345 628.739133,36.520574 627.541495,36.520574 C625.427668,36.520574 623.489376,36.9352305 621.72736,37.7623221 C619.964603,38.5901542 618.467,39.7793298 617.233811,41.3291084 C615.999881,42.8796275 615.040734,44.7640931 614.353407,46.9832458 C613.666079,49.2031389 613.322416,51.6866351 613.322416,54.4344748 L613.322416,84.4504214 Z" id="Fill-16" fill="#25C155" sketch:type="MSShapeGroup" mask="url(#mask-4)"></path>
            </g>
        </g>
    </g>
</svg>