<?xml version="1.0" encoding="UTF-8" standalone="no"?>
<svg width="413px" height="224px" viewBox="0 0 413 224" version="1.1" xmlns="http://www.w3.org/2000/svg" xmlns:xlink="http://www.w3.org/1999/xlink" xmlns:sketch="http://www.bohemiancoding.com/sketch/ns">
    <!-- Generator: Sketch 3.3 (11970) - http://www.bohemiancoding.com/sketch -->
    <title>smartphone-4-icon + danger-9-icon</title>
    <desc>Created with Sketch.</desc>
    <defs></defs>
    <g id="Page-1" stroke="none" stroke-width="1" fill="none" fill-rule="evenodd" sketch:type="MSPage">
        <g id="checklist@2x" sketch:type="MSArtboardGroup" transform="translate(-168.000000, -413.000000)" fill="#FFFFFF">
            <g id="smartphone-4-icon-+-danger-9-icon" sketch:type="MSLayerGroup" transform="translate(168.000000, 413.000000)">
                <path d="M285.664,-94 L128,-94 C109.773,-94 95,-79.226 95,-61 L95,285 C95,303.226 109.773,318 128,318 L285.664,318 C303.891,318 318.664,303.226 318.664,285 L318.664,-61 C318.664,-79.226 303.891,-94 285.664,-94 L285.664,-94 Z M189.332,-63.778 L226.332,-63.778 C228.541,-63.778 230.332,-61.987 230.332,-59.778 C230.332,-57.569 228.541,-55.778 226.332,-55.778 L189.332,-55.778 C187.123,-55.778 185.332,-57.569 185.332,-59.778 C185.332,-61.987 187.123,-63.778 189.332,-63.778 L189.332,-63.778 Z M207.834,299.056 C198.996,299.056 191.834,291.893 191.834,283.056 C191.834,274.219 198.996,267.056 207.834,267.056 C216.668,267.056 223.834,274.219 223.834,283.056 C223.834,291.893 216.668,299.056 207.834,299.056 L207.834,299.056 Z M293.582,249.75 L120.084,249.75 L120.084,-25.75 L293.582,-25.75 L293.582,249.75 L293.582,249.75 Z" id="smartphone-4-icon" sketch:type="MSShapeGroup" transform="translate(206.832000, 112.000000) rotate(-270.000000) translate(-206.832000, -112.000000) "></path>
                <path d="M201.581013,85.0014947 L209.660039,103.552416 L227.099081,96.1245439 L218.527498,112.479277 L234.366083,116.999837 L218.125039,123.342831 L228.777415,143.31856 L206.02398,131.047536 L192.336675,141.925586 L194.304347,127.636013 L176.222109,124.183278 L190.189658,115.914107 L181.200551,103.966244 L197.546758,107.0421 L201.581013,85.0014947 L201.581013,85.0014947 Z M197.6613,51.0221214 L189.540209,95.3867022 L157.765834,89.4077968 L175.520932,113.007647 L148.450156,129.034388 L183.131844,135.657057 L179.061493,165.21677 L207.079582,142.948787 L253.125908,167.781879 L232.205708,128.55121 L265.549844,115.528985 L233.051554,106.25253 L248.910319,75.9939139 L214.853922,90.4992114 L197.6613,51.0221214 L197.6613,51.0221214 Z" id="danger-9-icon" sketch:type="MSShapeGroup"></path>
            </g>
        </g>
    </g>
</svg>