<?xml version="1.0" encoding="UTF-8" standalone="no"?>
<svg width="374px" height="212px" viewBox="0 0 374 212" version="1.1" xmlns="http://www.w3.org/2000/svg" xmlns:xlink="http://www.w3.org/1999/xlink" xmlns:sketch="http://www.bohemiancoding.com/sketch/ns">
    <!-- Generator: Sketch 3.3 (11970) - http://www.bohemiancoding.com/sketch -->
    <title>danger-9-icon + phone399</title>
    <desc>Created with Sketch.</desc>
    <defs></defs>
    <g id="Page-1" stroke="none" stroke-width="1" fill="none" fill-rule="evenodd" sketch:type="MSPage">
        <g id="6-Connecting-to-waivecar@2x-" sketch:type="MSArtboardGroup" transform="translate(-188.000000, -410.000000)">
            <g id="danger-9-icon-+-Group-+-phone399-+-Oval-29-+-Oval-29-Copy-+-Oval-29-Copy-2-+-Rectangle-33-+-REPORT-A-PROBLEM" sketch:type="MSLayerGroup" transform="translate(100.000000, 156.500000)">
                <g id="danger-9-icon-+-Group-+-phone399" transform="translate(9.000000, 0.000000)" sketch:type="MSShapeGroup">
                    <g id="danger-9-icon-+-phone399" transform="translate(79.000000, 253.000000)">
                        <path d="M182.13795,84.5749324 L189.386653,101.21928 L205.033395,94.5548087 L197.342758,109.228682 L211.55353,113.284641 L196.981661,118.975733 L206.539239,136.898454 L186.12429,125.888586 L173.8437,135.648642 L175.609145,122.827682 L159.385311,119.729802 L171.917343,112.310497 L163.852093,101.590577 L178.518316,104.350312 L182.13795,84.5749324 L182.13795,84.5749324 Z M178.621086,54.0877938 L171.334642,93.8927988 L142.825882,88.5283762 L158.756198,109.702749 L134.467624,124.082339 L165.584897,130.024363 L161.932876,156.546072 L187.071403,136.566684 L228.385311,158.847551 L209.615188,123.648819 L239.532376,111.964956 L210.374102,103.64189 L224.60298,76.493107 L194.046734,89.5076205 L178.621086,54.0877938 L178.621086,54.0877938 Z" id="danger-9-icon" fill="#25C155"></path>
                        <g id="phone399" transform="translate(187.000000, 106.500000) rotate(-90.000000) translate(-187.000000, -106.500000) translate(81.000000, -80.500000)" fill="#303732">
                            <path d="M196.760776,0.4675 L15.3038793,0.4675 C7.03917241,0.4675 0.338362069,7.16584 0.338362069,15.4275 L0.338362069,358.5725 C0.338362069,366.83416 7.03917241,373.5325 15.3038793,373.5325 L196.760776,373.5325 C205.025483,373.5325 211.726293,366.83416 211.726293,358.5725 L211.726293,15.4275 C211.726293,7.16584 205.025483,0.4675 196.760776,0.4675 L196.760776,0.4675 Z M85.7241207,31.6778 L123.871224,31.6778 C125.304172,31.6778 126.452776,32.8372 126.452776,34.26214 C126.452776,35.68708 125.292948,36.84648 123.871224,36.84648 L85.7241207,36.84648 C84.2986552,36.84648 83.1388276,35.68708 83.1388276,34.26214 C83.1388276,32.8372 84.2986552,31.6778 85.7241207,31.6778 L85.7241207,31.6778 Z M104.797672,342.31846 C100.034897,342.31846 96.1737931,338.45878 96.1737931,333.69776 C96.1737931,328.93674 100.031155,325.07332 104.797672,325.07332 C109.560448,325.07332 113.421552,328.933 113.421552,333.69776 C113.421552,338.45878 109.560448,342.31846 104.797672,342.31846 L104.797672,342.31846 Z M194.587034,314.31334 L17.4776207,314.31334 L17.4776207,59.68666 L194.587034,59.68666 L194.587034,314.31334 L194.587034,314.31334 Z" id="Shape"></path>
                        </g>
                    </g>
                </g>
            </g>
        </g>
    </g>
</svg>