<?xml version="1.0" encoding="UTF-8" standalone="no"?>
<svg width="121px" height="120px" viewBox="0 0 121 120" version="1.1" xmlns="http://www.w3.org/2000/svg" xmlns:xlink="http://www.w3.org/1999/xlink" xmlns:sketch="http://www.bohemiancoding.com/sketch/ns">
    <!-- Generator: Sketch 3.3.3 (12072) - http://www.bohemiancoding.com/sketch -->
    <title>Oval 1 Copy + Shape</title>
    <desc>Created with Sketch.</desc>
    <defs></defs>
    <g id="Vision" stroke="none" stroke-width="1" fill="none" fill-rule="evenodd" sketch:type="MSPage">
        <g id="36-Our-vision@2x" sketch:type="MSArtboardGroup" transform="translate(-74.000000, -999.000000)">
            <g id="ICONS" sketch:type="MSLayerGroup" transform="translate(60.000000, 995.000000)">
                <g id="icons" transform="translate(14.000000, 1.000000)" sketch:type="MSShapeGroup">
                    <g id="tree-icon" transform="translate(0.000000, 2.000000)">
                        <g id="Oval-1-Copy-+-Shape">
                            <path d="M60.3,121 C93.437085,121 120.3,94.137085 120.3,61 C120.3,27.862915 93.437085,1 60.3,1 C27.162915,1 0.3,27.862915 0.3,61 C0.3,94.137085 27.162915,121 60.3,121 Z" id="Oval-1-Copy" fill="#25C155"></path>
                            <path d="M89.4121433,46.5884576 C89.4121433,41.3116989 85.4077845,36.9715613 80.2719845,36.4384875 C78.8305756,32.5513979 75.1001198,29.7754777 70.7103638,29.7754777 C68.7887996,29.7754777 66.9979404,30.316448 65.4640126,31.2395154 C63.7194718,28.1154414 60.3846668,26 56.5516742,26 C51.4699712,26 47.2672566,29.7191414 46.4873872,34.5811562 C46.0726433,34.530477 45.6534208,34.4954731 45.2251232,34.4954731 C39.5888962,34.4954731 35.0188168,39.0644918 35.0188168,44.7017795 C35.0188168,44.9779218 35.0390884,45.248407 35.0605387,45.5188921 C32.2024712,47.3277837 30.3,50.5081941 30.3,54.1405916 C30.3,57.3515273 31.785488,60.2118341 34.1036459,62.0827192 C34.0935101,62.2664606 34.0754777,62.4489055 34.0754777,62.635004 C34.0754777,68.2712309 38.6444964,72.8413104 44.2817841,72.8413104 C45.9711672,72.8413104 47.5602527,72.4243271 48.9634755,71.6985548 C50.9075507,73.0949417 53.6913674,74.8418398 55.0391966,74.493568 C55.0391966,74.493568 55.5406844,82.2610294 55.4324903,84.2333907 C55.226238,87.9863574 54.1003362,92.1642039 53.3080917,95.5453272 L65.5791603,95.5453272 C65.5791603,95.5453272 63.7702688,88.0078076 63.6913036,85.4911761 C63.6124563,82.9744266 64.4780088,78.3401144 64.4780088,78.3401144 L68.7348204,73.9369225 C70.3734065,75.0571671 72.3524857,75.6939564 74.487138,75.6939564 C79.7637788,75.6939564 84.1040342,71.6794617 84.637108,66.5435439 C88.5240798,65.102135 91.3,61.3615434 91.3,56.9717874 C91.3,54.3796086 90.3262535,52.0218502 88.7348108,50.220973 C89.1653477,49.0915354 89.4121433,47.8699326 89.4121433,46.5884576 L89.4121433,46.5884576 Z M51.321116,70.0135325 C52.1392894,69.2324845 52.825697,68.3196708 53.3496957,67.3064416 L55.3535251,71.5045598 C55.3524644,71.5046776 54.2626273,71.9858937 51.321116,70.0135325 L51.321116,70.0135325 Z M58.8136136,72.6057113 C57.7766949,72.7939313 56.0107039,69.6010279 54.7573971,67.0054311 C56.1470661,67.7143497 57.71588,68.1223757 59.3838128,68.1223757 C59.8121104,68.1223757 60.2325115,68.0874896 60.6472554,68.0356319 C60.3249126,70.1127693 59.7569527,72.4332844 58.8136136,72.6057113 L58.8136136,72.6057113 Z M63.2191626,74.6490233 C60.8207431,75.3150414 62.2566126,70.3470719 62.944081,67.470972 C63.441208,67.28617 63.922424,67.0687211 64.3799505,66.8104933 C64.6560929,68.9067237 65.5666673,70.7978805 66.915793,72.2933864 C65.7469907,73.3316015 64.4012829,74.3210232 63.2191626,74.6490233 L63.2191626,74.6490233 Z" id="Shape" fill="#FFFFFF"></path>
                        </g>
                    </g>
                </g>
            </g>
        </g>
    </g>
</svg>