<?xml version="1.0" encoding="UTF-8" standalone="no"?>
<svg width="125px" height="127px" viewBox="0 0 125 127" version="1.1" xmlns="http://www.w3.org/2000/svg" xmlns:xlink="http://www.w3.org/1999/xlink" xmlns:sketch="http://www.bohemiancoding.com/sketch/ns">
    <!-- Generator: Sketch 3.3.3 (12072) - http://www.bohemiancoding.com/sketch -->
    <title>Fill 3 + Fill 4</title>
    <desc>Created with Sketch.</desc>
    <defs></defs>
    <g id="Contact" stroke="none" stroke-width="1" fill="none" fill-rule="evenodd" sketch:type="MSPage">
        <g id="34-Contact@2x" sketch:type="MSArtboardGroup" transform="translate(-236.000000, -1129.000000)">
            <g id="Imported-Layers" sketch:type="MSLayerGroup" transform="translate(236.000000, 1129.000000)">
                <g id="Fill-3-+-Fill-4" sketch:type="MSShapeGroup">
                    <path d="M0,63.0704831 C0,97.9027303 27.9828164,126.140966 62.5,126.140966 C97.0171836,126.140966 125,97.9027303 125,63.0704831 C125,28.238236 97.0171836,0 62.5,0 C27.9828164,0 0,28.238236 0,63.0704831" id="Fill-3" fill="#68C6E1"></path>
                    <path d="M85.7823631,47.7104157 C84.0880495,48.5237865 82.2874824,49.0503371 80.3792258,49.2929213 C82.3233788,48.0486067 83.8166722,46.089382 84.5231148,43.7420225 C82.7038815,44.8878764 80.6908072,45.7069551 78.5456339,46.1849888 C76.8383976,44.2243371 74.3888222,43 71.6937149,43 C66.5059565,43 62.3017614,47.4949438 62.3017614,53.0515506 C62.3017614,53.8321011 62.3836054,54.6040899 62.5386782,55.3304157 C54.7477074,54.9308652 47.8168162,50.9139551 43.1804276,44.8450674 C42.3763466,46.3262584 41.9154359,48.0486067 41.9154359,49.8965281 C41.9154359,53.3754719 43.5709812,56.4705618 46.0952213,58.2457079 C44.5531088,58.1843483 43.1043271,57.7562584 41.8393353,56.9971124 L41.8393353,57.1341011 C41.8393353,61.9943483 45.0771973,66.0497865 49.3732873,66.9887303 C48.5864366,67.215618 47.7536384,67.3197865 46.892123,67.3197865 C46.2876264,67.3197865 45.7147187,67.2784045 45.1360675,67.1414157 C46.3263946,71.1483371 49.7983016,74.0579213 53.9077299,74.1178539 C50.6914059,76.8276629 46.6437194,78.4187303 42.2413758,78.4187303 C41.4818065,78.4187303 40.7322881,78.3744944 40,78.2788876 C44.15394,81.142809 49.0832438,82.8123596 54.3987937,82.8123596 C71.6736129,82.8123596 81.1258725,67.4938764 81.1258725,54.2145281 C81.1258725,53.7907191 81.1158215,53.3597753 81.0942836,52.9302584 C82.9278755,51.4933034 84.5231148,49.7210112 85.7823631,47.7104157" id="Fill-4" fill="#FFFFFF"></path>
                </g>
            </g>
        </g>
    </g>
</svg>