<?xml version="1.0" encoding="UTF-8" standalone="no"?>
<svg width="81px" height="81px" viewBox="0 0 81 81" version="1.1" xmlns="http://www.w3.org/2000/svg" xmlns:xlink="http://www.w3.org/1999/xlink" xmlns:sketch="http://www.bohemiancoding.com/sketch/ns">
    <!-- Generator: Sketch 3.3 (11970) - http://www.bohemiancoding.com/sketch -->
    <title>Imported Layers</title>
    <desc>Created with Sketch.</desc>
    <defs></defs>
    <g id="Page-1" stroke="none" stroke-width="1" fill="none" fill-rule="evenodd" sketch:type="MSPage">
        <g id="nav@2x-" sketch:type="MSArtboardGroup" transform="translate(-507.000000, -600.000000)" fill="#25C155" opacity="0.9">
            <g id="items" sketch:type="MSLayerGroup" transform="translate(140.000000, 291.500000)">
                <g id="vision" transform="translate(363.000000, 309.000000)" sketch:type="MSShapeGroup">
                    <path d="M28.0053061,22.9583673 L42.862449,22.9583673 L42.862449,38.2628571 L26.3204082,38.2628571 C26.4167347,32.804898 27.0093878,27.6408163 28.0053061,22.9583673 L28.0053061,22.9583673 Z M28.0053061,56.8457143 L42.862449,56.8457143 L42.862449,41.5395918 L26.3204082,41.5395918 C26.4167347,47.0008163 27.0093878,52.1616327 28.0053061,56.8457143 L28.0053061,56.8457143 Z M42.8608163,19.6783673 L42.8608163,0 C36.8477551,1.18040816 31.6902041,8.78857143 28.7840816,19.6783673 L42.8608163,19.6783673 L42.8608163,19.6783673 Z M64.4069388,56.8457143 L80.7873469,56.8457143 C82.9783673,52.1616327 84.2812245,47.0008163 84.495102,41.5395918 L65.9612245,41.5395918 C65.8681633,47.0073469 65.3457143,52.155102 64.4069388,56.8457143 L64.4069388,56.8457143 Z M64.4069388,22.9583673 C65.3408163,27.6457143 65.8681633,32.7983673 65.9595918,38.2628571 L84.5,38.2628571 C84.2763265,32.804898 82.9783673,27.6408163 80.7922449,22.9583673 L64.4069388,22.9583673 L64.4069388,22.9583673 Z M63.6640816,19.6783673 L79.0681633,19.6783673 C73.7195918,10.5518367 64.8738776,3.75510204 54.3563265,1.0922449 C58.3971429,5.09714286 61.6412245,11.5689796 63.6640816,19.6783673 L63.6640816,19.6783673 Z M42.8608163,79.802449 L42.8608163,60.1257143 L28.7840816,60.1257143 C31.6902041,71.0122449 36.8477551,78.6187755 42.8608163,79.802449 L42.8608163,79.802449 Z M60.2142857,19.6783673 C57.3130612,8.79183673 52.1538776,1.18367347 46.1391837,0 L46.1391837,19.6783673 L60.2142857,19.6783673 L60.2142857,19.6783673 Z M62.6828571,41.5395918 L46.1391837,41.5395918 L46.1391837,56.8457143 L60.9963265,56.8457143 C61.9906122,52.1616327 62.584898,47.0008163 62.6828571,41.5395918 L62.6828571,41.5395918 Z M4.5,41.5395918 C4.72040816,47.0008163 6.02163265,52.1616327 8.21102041,56.8457143 L24.5881633,56.8457143 C23.6542857,52.155102 23.1269388,47.0073469 23.0387755,41.5395918 L4.5,41.5395918 L4.5,41.5395918 Z M25.3359184,60.1257143 L9.93346939,60.1257143 C15.2836735,69.2522449 24.1277551,76.0506122 34.6469388,78.7134694 C30.6061224,74.7069388 27.3604082,68.235102 25.3359184,60.1257143 L25.3359184,60.1257143 Z M63.6640816,60.1257143 C61.6412245,68.235102 58.3987755,74.7085714 54.3563265,78.7134694 C64.8722449,76.0506122 73.7114286,69.2489796 79.0681633,60.1257143 L63.6640816,60.1257143 L63.6640816,60.1257143 Z M25.3359184,19.6783673 C27.3604082,11.5689796 30.6012245,5.09714286 34.6453061,1.0922449 C24.1277551,3.75346939 15.2869388,10.5534694 9.93346939,19.6783673 L25.3359184,19.6783673 L25.3359184,19.6783673 Z M60.9963265,22.9583673 L46.1391837,22.9583673 L46.1391837,38.2628571 L62.6828571,38.2628571 C62.584898,32.804898 61.9906122,27.6408163 60.9963265,22.9583673 L60.9963265,22.9583673 Z M8.21102041,22.9583673 C6.02163265,27.6408163 4.71877551,32.804898 4.5,38.2628571 L23.0387755,38.2628571 C23.1285714,32.7983673 23.6542857,27.6457143 24.5881633,22.9583673 L8.21102041,22.9583673 L8.21102041,22.9583673 Z M46.1391837,60.1257143 L46.1391837,79.8040816 C52.1538776,78.6220408 57.3130612,71.0155102 60.2142857,60.1257143 L46.1391837,60.1257143 L46.1391837,60.1257143 Z" id="Imported-Layers"></path>
                </g>
            </g>
        </g>
    </g>
</svg>