<?xml version="1.0" encoding="UTF-8" standalone="no"?>
<svg viewBox="0 0 80 80" version="1.1" xmlns="http://www.w3.org/2000/svg" xmlns:xlink="http://www.w3.org/1999/xlink" xmlns:sketch="http://www.bohemiancoding.com/sketch/ns">
    <!-- Generator: Sketch 3.4.4 (17249) - http://www.bohemiancoding.com/sketch -->
    <title>Imported Layers</title>
    <desc>Created with Sketch.</desc>
    <defs></defs>
    <g id="Nav" stroke="none" stroke-width="1" fill="none" fill-rule="evenodd" sketch:type="MSPage">
        <g id="13-Nav@2x-" sketch:type="MSArtboardGroup" transform="translate(-506.000000, -634.000000)" fill="#25C155" opacity="0.9">
            <g id="items" sketch:type="MSLayerGroup" transform="translate(147.000000, 326.000000)">
                <g id="vision" transform="translate(355.000000, 308.000000)" sketch:type="MSShapeGroup">
                    <path d="M27.5053061,22.9583673 L42.362449,22.9583673 L42.362449,38.2628571 L25.8204082,38.2628571 C25.9167347,32.804898 26.5093878,27.6408163 27.5053061,22.9583673 L27.5053061,22.9583673 Z M27.5053061,56.8457143 L42.362449,56.8457143 L42.362449,41.5395918 L25.8204082,41.5395918 C25.9167347,47.0008163 26.5093878,52.1616327 27.5053061,56.8457143 L27.5053061,56.8457143 Z M42.3608163,19.6783673 L42.3608163,0 C36.3477551,1.18040816 31.1902041,8.78857143 28.2840816,19.6783673 L42.3608163,19.6783673 L42.3608163,19.6783673 Z M63.9069388,56.8457143 L80.2873469,56.8457143 C82.4783673,52.1616327 83.7812245,47.0008163 83.995102,41.5395918 L65.4612245,41.5395918 C65.3681633,47.0073469 64.8457143,52.155102 63.9069388,56.8457143 L63.9069388,56.8457143 Z M63.9069388,22.9583673 C64.8408163,27.6457143 65.3681633,32.7983673 65.4595918,38.2628571 L84,38.2628571 C83.7763265,32.804898 82.4783673,27.6408163 80.2922449,22.9583673 L63.9069388,22.9583673 L63.9069388,22.9583673 Z M63.1640816,19.6783673 L78.5681633,19.6783673 C73.2195918,10.5518367 64.3738776,3.75510204 53.8563265,1.0922449 C57.8971429,5.09714286 61.1412245,11.5689796 63.1640816,19.6783673 L63.1640816,19.6783673 Z M42.3608163,79.802449 L42.3608163,60.1257143 L28.2840816,60.1257143 C31.1902041,71.0122449 36.3477551,78.6187755 42.3608163,79.802449 L42.3608163,79.802449 Z M59.7142857,19.6783673 C56.8130612,8.79183673 51.6538776,1.18367347 45.6391837,0 L45.6391837,19.6783673 L59.7142857,19.6783673 L59.7142857,19.6783673 Z M62.1828571,41.5395918 L45.6391837,41.5395918 L45.6391837,56.8457143 L60.4963265,56.8457143 C61.4906122,52.1616327 62.084898,47.0008163 62.1828571,41.5395918 L62.1828571,41.5395918 Z M4,41.5395918 C4.22040816,47.0008163 5.52163265,52.1616327 7.71102041,56.8457143 L24.0881633,56.8457143 C23.1542857,52.155102 22.6269388,47.0073469 22.5387755,41.5395918 L4,41.5395918 L4,41.5395918 Z M24.8359184,60.1257143 L9.43346939,60.1257143 C14.7836735,69.2522449 23.6277551,76.0506122 34.1469388,78.7134694 C30.1061224,74.7069388 26.8604082,68.235102 24.8359184,60.1257143 L24.8359184,60.1257143 Z M63.1640816,60.1257143 C61.1412245,68.235102 57.8987755,74.7085714 53.8563265,78.7134694 C64.3722449,76.0506122 73.2114286,69.2489796 78.5681633,60.1257143 L63.1640816,60.1257143 L63.1640816,60.1257143 Z M24.8359184,19.6783673 C26.8604082,11.5689796 30.1012245,5.09714286 34.1453061,1.0922449 C23.6277551,3.75346939 14.7869388,10.5534694 9.43346939,19.6783673 L24.8359184,19.6783673 L24.8359184,19.6783673 Z M60.4963265,22.9583673 L45.6391837,22.9583673 L45.6391837,38.2628571 L62.1828571,38.2628571 C62.084898,32.804898 61.4906122,27.6408163 60.4963265,22.9583673 L60.4963265,22.9583673 Z M7.71102041,22.9583673 C5.52163265,27.6408163 4.21877551,32.804898 4,38.2628571 L22.5387755,38.2628571 C22.6285714,32.7983673 23.1542857,27.6457143 24.0881633,22.9583673 L7.71102041,22.9583673 L7.71102041,22.9583673 Z M45.6391837,60.1257143 L45.6391837,79.8040816 C51.6538776,78.6220408 56.8130612,71.0155102 59.7142857,60.1257143 L45.6391837,60.1257143 L45.6391837,60.1257143 Z" id="Imported-Layers"></path>
                </g>
            </g>
        </g>
    </g>
</svg>