<?xml version="1.0" encoding="UTF-8" standalone="no"?>
<svg width="70px" height="70px" viewBox="0 0 70 70" version="1.1" xmlns="http://www.w3.org/2000/svg" xmlns:xlink="http://www.w3.org/1999/xlink" xmlns:sketch="http://www.bohemiancoding.com/sketch/ns">
    <!-- Generator: Sketch 3.4.3 (16044) - http://www.bohemiancoding.com/sketch -->
    <title>Shape Copy 2 + Shape Copy</title>
    <desc>Created with Sketch.</desc>
    <defs></defs>
    <g id="Core-Flow" stroke="none" stroke-width="1" fill="none" fill-rule="evenodd" sketch:type="MSPage">
        <g id="14.1-WaiveCar-not-available@2x-" sketch:type="MSArtboardGroup" transform="translate(-340.000000, -549.000000)" fill="#25C155">
            <g id="Rectangle-1-Copy-4-+-Rectangle-1-Copy-4-+-Shape-Copy-2-+-Shape-Copy" sketch:type="MSLayerGroup" transform="translate(30.000000, 479.000000)">
                <g id="Rectangle-1-Copy-4-+-Shape-Copy-2-+-Shape-Copy-+-Rectangle-33-+-OK" transform="translate(70.000000, 70.000000)" sketch:type="MSShapeGroup">
                    <g id="Rectangle-1-Copy-4-+-Shape-Copy-2-+-Shape-Copy" transform="translate(19.000000, 0.000000)">
                        <g id="Shape-Copy-2-+-Shape-Copy">
                            <g id="Group">
                                <g id="Shape-Copy-2-+-Shape-Copy" transform="translate(221.000000, 0.000000)">
                                    <path d="M24.1689189,27.8134384 L21.6753003,39.5142643 L41.0487988,24.5525526 L40.2815315,33.7597598 L63.2995495,15.3453453 C57.1614114,6.13813814 46.6114865,0 34.527027,0 C15.5371622,0 0,15.5371622 0,34.527027 C0,39.5142643 0.959084084,44.1178679 2.87725225,48.3378378 L24.1689189,27.8134384 L24.1689189,27.8134384 Z" id="Shape-Copy-2"></path>
                                    <path d="M66.7522523,22.0589339 L32.6088589,48.7214715 L32.9924925,39.3224474 L13.8108108,54.2841592 L14.3862613,42.5833333 L2.87725225,48.5296547 C8.24812312,60.6141141 20.3325826,69.0540541 34.527027,69.0540541 C53.7087087,69.0540541 69.0540541,53.5168919 69.0540541,34.527027 C69.0540541,30.1152402 68.2867868,25.8952703 66.7522523,22.0589339 L66.7522523,22.0589339 Z" id="Shape-Copy"></path>
                                </g>
                            </g>
                        </g>
                    </g>
                </g>
            </g>
        </g>
    </g>
</svg>