<?xml version="1.0" encoding="UTF-8" standalone="no"?>
<svg width="28px" height="28px" viewBox="0 0 28 28" version="1.1" xmlns="http://www.w3.org/2000/svg" xmlns:xlink="http://www.w3.org/1999/xlink" xmlns:sketch="http://www.bohemiancoding.com/sketch/ns">
    <!-- Generator: Sketch 3.3.3 (12072) - http://www.bohemiancoding.com/sketch -->
    <title>warning-2-icon</title>
    <desc>Created with Sketch.</desc>
    <defs></defs>
    <g id="Intro---Sign-In---Registration" stroke="none" stroke-width="1" fill="none" fill-rule="evenodd" sketch:type="MSPage">
        <g id="4-Sign-in-error@2x" sketch:type="MSArtboardGroup" transform="translate(-38.000000, -728.000000)" fill="#FA4838">
            <g id="This-email-is-alread-Copy-+-warning-2-icon" sketch:type="MSLayerGroup" transform="translate(38.000000, 726.000000)">
                <path d="M13.8505126,2 C6.20103968,2 -1.42108547e-14,8.20097245 -1.42108547e-14,15.8503781 C-1.42108547e-14,23.4996494 6.20103968,29.7006218 13.8505126,29.7006218 C21.4997838,29.7006218 27.7007563,23.4996494 27.7007563,15.8503781 C27.7007563,8.20097245 21.4997166,2 13.8505126,2 L13.8505126,2 Z M11.1946146,6.96136962 L16.5061416,6.96136962 L15.1614513,19.3996884 L12.539305,19.3996884 L11.1946146,6.96136962 L11.1946146,6.96136962 Z M13.8503781,25.4647799 C12.7472614,25.4647799 11.852975,24.5704263 11.852975,23.4673768 C11.852975,22.3641928 12.7472614,21.4699737 13.8503781,21.4699737 C14.9534949,21.4699737 15.8477812,22.3641928 15.8477812,23.4673768 C15.8477812,24.5704263 14.9534949,25.4647799 13.8503781,25.4647799 L13.8503781,25.4647799 Z" id="warning-2-icon" sketch:type="MSShapeGroup"></path>
            </g>
        </g>
    </g>
</svg>