<?xml version="1.0" encoding="UTF-8" standalone="no"?>
<svg width="400px" height="139px" viewBox="0 0 400 139" version="1.1" xmlns="http://www.w3.org/2000/svg" xmlns:xlink="http://www.w3.org/1999/xlink" xmlns:sketch="http://www.bohemiancoding.com/sketch/ns">
    <!-- Generator: Sketch 3.3.3 (12072) - http://www.bohemiancoding.com/sketch -->
    <title>app</title>
    <desc>Created with Sketch.</desc>
    <defs></defs>
    <g id="Page-1" stroke="none" stroke-width="1" fill="none" fill-rule="evenodd" sketch:type="MSPage">
        <g id="waivecar-website@2x" sketch:type="MSArtboardGroup" transform="translate(-299.000000, -1018.000000)">
            <g id="VALUE-PROPOSITION" sketch:type="MSLayerGroup" transform="translate(300.000000, 585.000000)">
                <g id="google-play-+-app-store" transform="translate(0.000000, 434.000000)" sketch:type="MSShapeGroup">
                    <g id="app">
                        <path d="M397.477176,116.906667 C397.477176,128.975714 388.52381,136.412857 376.629557,136.412857 L21.7625616,136.412857 C9.80295567,136.412857 0,126.627143 0,114.558095 L0,22.2461905 C0,10.1771429 9.80295567,0.391428571 21.8932677,0.391428571 L376.433498,0.391428571 C388.52381,0.391428571 397.281117,10.1771429 397.281117,22.2461905 L397.281117,116.841429 L397.477176,116.841429 L397.477176,116.906667 Z" id="Shape" stroke="#FFFFFF" stroke-width="1.5" fill="#010101"></path>
                        <g id="Group" transform="translate(38.558292, 27.400000)" fill="#FFFFFF">
                            <path d="M50.9100164,39.6647619 C50.7139573,30.4009524 58.5563218,25.7690476 58.883087,25.6385714 C54.5697865,19.18 47.7730706,18.3319048 45.2896552,18.3319048 C39.6692939,17.6795238 34.0489327,21.7895238 31.2387521,21.7895238 C28.2325123,21.7895238 23.7885057,18.462381 18.952381,18.462381 C12.8091954,18.6580952 6.99277504,22.1157143 3.72512315,27.7261905 C-2.87553366,39.1428571 2.09129721,55.6480952 8.36518883,64.9119048 C11.5021346,69.3480952 15.1619048,74.3714286 19.9326765,74.1757143 C24.5727422,73.98 26.4026273,71.1747619 32.0229885,71.1747619 C37.6433498,71.1747619 39.3425287,74.1757143 44.3093596,73.98 C49.2761905,73.98 52.6091954,69.5438095 55.5500821,64.9119048 C59.2098522,59.7580952 60.7129721,54.6695238 60.7129721,54.4738095 C60.7129721,54.6042857 51.1060755,50.7552381 50.9100164,39.6647619 L50.9100164,39.6647619 L50.9100164,39.6647619 Z" id="Shape"></path>
                            <path d="M41.6298851,12.2647619 C44.1133005,9.13333333 45.9431856,4.82761905 45.4203612,0.326190476 C41.7605911,0.521904762 37.1205255,2.8052381 34.5064039,5.93666667 C32.2190476,8.61142857 30.0623974,13.047619 30.7159278,17.3533333 C34.8331691,17.6795238 39.0157635,15.3961905 41.6298851,12.2647619 L41.6298851,12.2647619 L41.6298851,12.2647619 Z" id="Shape"></path>
                            <path d="M107.897865,57.54 L104.56486,47.4280952 C104.238095,46.4495238 103.584565,43.9704762 102.604269,40.1214286 L102.604269,40.1214286 C102.277504,41.752381 101.623974,44.2314286 100.774384,47.4280952 L97.6374384,57.54 L107.897865,57.54 L107.897865,57.54 Z M119.203941,73.5885714 L112.603284,73.5885714 L108.943514,62.367619 L96.3303777,62.367619 L92.8666667,73.5885714 L86.3967159,73.5885714 L98.8137931,35.0328571 L106.460099,35.0328571 L119.203941,73.5885714 L119.203941,73.5885714 Z" id="Shape"></path>
                            <path d="M144.691626,59.562381 C144.691626,56.887619 144.038095,54.6042857 142.861741,52.9733333 C141.55468,51.1466667 139.724795,50.1680952 137.568144,50.1680952 C136.065025,50.1680952 134.561905,50.69 133.450903,51.6685714 C132.274548,52.6471429 131.490312,53.9519048 130.967488,55.6480952 C130.771429,56.4961905 130.640722,56.9528571 130.640722,57.4747619 L130.640722,62.1066667 C130.640722,64.0638095 131.294253,65.76 132.470608,67.2604762 C133.646962,68.5652381 135.280788,69.4133333 137.306732,69.4133333 C139.594089,69.4133333 141.423974,68.5652381 142.796388,66.7385714 C144.038095,64.8466667 144.691626,62.4980952 144.691626,59.562381 L144.691626,59.562381 L144.691626,59.562381 Z M151.03087,59.3666667 C151.03087,64.1942857 149.72381,67.782381 147.240394,70.587619 C144.953038,73.0666667 142.077504,74.2409524 138.613793,74.2409524 C134.954023,74.2409524 132.339901,72.9361905 130.640722,70.2614286 L130.640722,84.8095238 L124.497537,84.8095238 L124.497537,54.8652381 C124.497537,51.8642857 124.497537,48.9285714 124.301478,45.7971429 L129.791133,45.7971429 L130.117898,50.2333333 L130.313957,50.2333333 C132.274548,46.9061905 135.476847,45.2752381 139.790148,45.2752381 C143.123153,45.2752381 145.737274,46.58 148.089984,49.0590476 C149.985222,51.7990476 151.03087,55.0609524 151.03087,59.3666667 L151.03087,59.3666667 L151.03087,59.3666667 Z" id="Shape"></path>
                            <path d="M176.714614,59.562381 C176.714614,56.887619 176.061084,54.6042857 174.884729,52.9733333 C173.577668,51.1466667 171.747783,50.1680952 169.591133,50.1680952 C168.088013,50.1680952 166.584893,50.69 165.473892,51.6685714 C164.297537,52.6471429 163.5133,53.9519048 162.990476,55.6480952 C162.794417,56.4961905 162.663711,56.9528571 162.663711,57.4747619 L162.663711,62.1066667 C162.663711,64.0638095 163.317241,65.76 164.493596,67.2604762 C165.669951,68.5652381 167.303777,69.4133333 169.329721,69.4133333 C171.617077,69.4133333 173.446962,68.5652381 174.819376,66.7385714 C175.995731,64.8466667 176.714614,62.4980952 176.714614,59.562381 L176.714614,59.562381 L176.714614,59.562381 Z M182.988506,59.3666667 C182.988506,64.1942857 181.681445,67.782381 179.19803,70.587619 C176.910673,73.0666667 174.03514,74.2409524 170.571429,74.2409524 C166.911658,74.2409524 164.297537,72.9361905 162.598358,70.2614286 L162.598358,84.8095238 L156.455172,84.8095238 L156.455172,54.8652381 C156.455172,51.8642857 156.455172,48.9285714 156.259113,45.7971429 L161.748768,45.7971429 L162.075534,50.2333333 L162.271593,50.2333333 C164.232184,46.9061905 167.434483,45.2752381 171.747783,45.2752381 C175.080788,45.2752381 177.69491,46.58 180.047619,49.0590476 C182.00821,51.7990476 182.988506,55.0609524 182.988506,59.3666667 L182.988506,59.3666667 L182.988506,59.3666667 Z" id="Shape"></path>
                            <path d="M218.736617,62.6938095 C218.736617,66.0209524 217.560263,68.6304762 215.272906,70.6528571 C212.789491,72.9361905 209.32578,73.98 204.81642,73.98 C200.699179,73.98 197.366174,73.1319048 194.882759,71.6966667 L196.385878,66.5428571 C199.065353,68.1738095 202.00624,69.0219048 205.339245,69.0219048 C207.626601,69.0219048 209.456486,68.5 210.8289,67.5214286 C212.135961,66.5428571 212.789491,65.042381 212.789491,63.4114286 C212.789491,61.9109524 212.266667,60.6061905 211.155665,59.4319048 C210.175369,58.4533333 208.345484,57.4747619 205.862069,56.4309524 C199.065353,53.9519048 195.732348,50.2985714 195.732348,45.3404762 C195.732348,42.2090476 196.908703,39.5342857 199.392118,37.5771429 C201.679475,35.62 204.881773,34.5761905 208.868309,34.5761905 C212.33202,34.5761905 215.338259,35.2285714 217.625616,36.4028571 L216.122496,41.3609524 C213.965846,40.1866667 211.48243,39.5342857 208.67225,39.5342857 C206.515599,39.5342857 204.881773,40.0561905 203.50936,41.1652381 C202.529064,42.1438095 202.00624,43.3180952 202.00624,44.6228571 C202.00624,46.1233333 202.65977,47.4280952 203.836125,48.4066667 C204.81642,49.3852381 206.646305,50.3638095 209.456486,51.407619 C212.789491,52.712381 215.272906,54.2128571 216.776026,56.0395238 C217.952381,57.8661905 218.736617,60.0190476 218.736617,62.6938095 L218.736617,62.6938095 L218.736617,62.6938095 Z" id="Shape"></path>
                            <path d="M239.322824,50.4290476 L232.526108,50.4290476 L232.526108,63.8028571 C232.526108,67.2604762 233.702463,68.9566667 236.185878,68.9566667 C237.362233,68.9566667 238.14647,68.7609524 238.996059,68.6304762 L239.192118,73.262381 C238.015764,73.7842857 236.381938,73.9147619 234.355993,73.9147619 C231.872578,73.9147619 230.042693,73.262381 228.539573,71.7619048 C227.232512,70.2614286 226.578982,67.782381 226.578982,64.3247619 L226.578982,50.2985714 L222.592447,50.2985714 L222.592447,45.6666667 L226.578982,45.6666667 L226.578982,40.5128571 L232.722167,38.6861905 L232.722167,45.6666667 L239.518883,45.6666667 L239.518883,50.4942857 L239.322824,50.4942857 L239.322824,50.4290476 Z" id="Shape"></path>
                            <path d="M263.503448,59.562381 C263.503448,57.0833333 262.980624,54.7347619 261.869622,52.9733333 C260.562562,50.8204762 258.732677,49.6461905 256.249261,49.6461905 C253.765846,49.6461905 251.935961,50.8204762 250.6289,52.9733333 C249.452545,54.8 248.995074,56.9528571 248.995074,59.562381 C248.995074,62.0414286 249.517898,64.39 250.6289,66.1514286 C251.935961,68.3042857 253.765846,69.4785714 256.249261,69.4785714 C258.536617,69.4785714 260.366502,68.3042857 261.869622,66.1514286 C262.980624,64.3247619 263.503448,62.1719048 263.503448,59.562381 L263.503448,59.562381 L263.503448,59.562381 Z M269.973399,59.3666667 C269.973399,63.672381 268.797044,67.13 266.313629,69.9352381 C263.830213,72.7404762 260.366502,74.2409524 256.183908,74.2409524 C252.066667,74.2409524 248.864368,72.9361905 246.380952,70.2614286 C243.897537,67.5866667 242.721182,64.1290476 242.721182,60.0190476 C242.721182,55.7133333 244.028243,52.2557143 246.511658,49.4504762 C248.995074,46.6452381 252.328079,45.3404762 256.641379,45.3404762 C260.758621,45.3404762 263.96092,46.6452381 266.444335,49.4504762 C268.666338,51.9295238 269.973399,55.2566667 269.973399,59.3666667 L269.973399,59.3666667 L269.973399,59.3666667 Z" id="Shape"></path>
                            <path d="M290.036782,51.2771429 C289.383251,51.0814286 288.729721,51.0814286 288.07619,51.0814286 C285.91954,51.0814286 284.285714,51.9295238 283.10936,53.5604762 C282.129064,55.0609524 281.60624,56.887619 281.60624,59.0404762 L281.60624,73.5885714 L275.463054,73.5885714 L275.463054,54.5390476 C275.463054,51.407619 275.463054,48.4066667 275.266995,45.7971429 L280.560591,45.7971429 L280.75665,51.0814286 L280.952709,51.0814286 C281.60624,49.2547619 282.586535,47.7542857 284.089655,46.6452381 C285.396716,45.6666667 286.899836,45.1447619 288.533662,45.1447619 C289.056486,45.1447619 289.710016,45.1447619 290.036782,45.3404762 L290.036782,51.2771429 L290.036782,51.2771429 L290.036782,51.2771429 Z" id="Shape"></path>
                            <path d="M311.73399,56.7571429 C311.73399,54.9304762 311.407225,53.2995238 310.557635,51.9295238 C309.57734,50.2985714 307.878161,49.2547619 305.590805,49.2547619 C303.630213,49.2547619 301.931034,50.1028571 300.623974,51.7338095 C299.643678,53.0385714 298.990148,54.7347619 298.794089,56.5614286 L311.73399,56.7571429 L311.73399,56.7571429 Z M317.681117,58.3880952 C317.681117,59.562381 317.681117,60.3452381 317.485057,61.1933333 L298.924795,61.1933333 C298.924795,63.9985714 299.90509,66.0209524 301.604269,67.4561905 C303.107389,68.7609524 305.264039,69.4133333 307.747455,69.4133333 C310.557635,69.4133333 313.041051,68.8914286 315.197701,68.1085714 L316.177997,72.4142857 C313.498522,73.5885714 310.361576,74.0452381 306.897865,74.0452381 C302.584565,74.0452381 299.25156,72.7404762 296.768144,70.2614286 C294.284729,67.782381 293.108374,64.3247619 293.108374,60.0190476 C293.108374,55.9090476 294.284729,52.3861905 296.572085,49.5809524 C298.859442,46.58 302.192447,45.1447619 306.375041,45.1447619 C310.361576,45.1447619 313.302463,46.6452381 315.459113,49.5809524 C316.831527,51.9295238 317.681117,54.9304762 317.681117,58.3880952 L317.681117,58.3880952 L317.681117,58.3880952 Z" id="Shape"></path>
                            <path d="M95.6768473,4.63190476 C94.6965517,4.63190476 93.8469622,4.63190476 93.1934319,4.82761905 L93.1934319,19.0495238 C93.520197,19.0495238 94.1737274,19.2452381 95.154023,19.2452381 C99.7940887,19.2452381 102.473563,16.5704762 102.473563,11.612381 C102.604269,7.11095238 100.316913,4.63190476 95.6768473,4.63190476 L95.6768473,4.63190476 L95.6768473,4.63190476 Z M94.6965517,21.5285714 C93.0627258,21.5285714 91.5596059,21.3328571 90.2525452,21.3328571 L90.2525452,2.6747619 C91.8863711,2.34857143 93.5855501,2.34857143 95.5461412,2.34857143 C102.669622,2.34857143 105.806568,5.80619048 105.806568,11.4166667 C105.741215,17.8752381 101.950739,21.5285714 94.6965517,21.5285714 L94.6965517,21.5285714 L94.6965517,21.5285714 Z" id="Shape"></path>
                            <path d="M116.066995,9.59 C113.910345,9.59 112.407225,11.5471429 112.407225,14.5480952 C112.407225,17.3533333 113.910345,19.3757143 116.066995,19.3757143 C118.223645,19.3757143 119.726765,17.2228571 119.726765,14.417619 C119.661412,11.7428571 118.223645,9.59 116.066995,9.59 L116.066995,9.59 L116.066995,9.59 Z M116.066995,21.6590476 C112.08046,21.6590476 109.466338,18.6580952 109.466338,14.7438095 C109.466338,10.6338095 112.145813,7.43714286 116.263054,7.43714286 C120.249589,7.43714286 122.863711,10.242381 122.863711,14.352381 C122.863711,18.6580952 119.988177,21.6590476 116.066995,21.6590476 L116.066995,21.6590476 L116.066995,21.6590476 Z" id="Shape"></path>
                            <path d="M145.541215,7.63285714 L141.227915,21.202381 L138.417734,21.202381 L136.587849,15.2657143 C136.065025,13.7652381 135.738259,12.2647619 135.411494,10.8295238 L135.411494,10.8295238 C135.215435,12.33 134.757964,13.8304762 134.23514,15.2657143 L132.405255,21.202381 L129.595074,21.202381 L125.608539,7.63285714 L128.745484,7.63285714 L130.248604,14.0914286 C130.575369,15.5919048 130.902135,17.092381 131.2289,18.3971429 L131.2289,18.3971429 C131.424959,17.2228571 131.88243,15.722381 132.405255,14.0914286 L134.365846,7.63285714 L136.849261,7.63285714 L138.679146,14.0914286 C139.20197,15.5919048 139.528736,17.2228571 139.855501,18.527619 L139.855501,18.527619 C140.05156,17.2228571 140.378325,15.722381 140.835796,14.0914286 L142.469622,7.63285714 L145.541215,7.63285714 L145.541215,7.63285714 Z" id="Shape"></path>
                            <path d="M161.291297,21.3328571 L158.285057,21.3328571 L158.285057,13.5695238 C158.285057,11.0904762 157.304762,9.91619048 155.474877,9.91619048 C153.644992,9.91619048 152.468637,11.4166667 152.468637,13.2433333 L152.468637,21.3328571 L149.462397,21.3328571 L149.462397,11.5471429 C149.462397,10.3728571 149.462397,9.06809524 149.266338,7.56761905 L151.945813,7.56761905 L152.141872,9.72047619 L152.337931,9.72047619 C153.187521,8.22 154.821346,7.43714286 156.651232,7.43714286 C159.461412,7.43714286 161.487356,9.59 161.487356,13.2433333 L161.291297,21.3328571 L161.291297,21.3328571 Z" id="Shape"></path>
                            <path d="M169.721839,21.3328571 L166.584893,21.3328571 L166.584893,1.3047619 L169.721839,1.3047619 L169.721839,21.3328571 Z" id="Shape"></path>
                            <path d="M180.831856,9.59 C178.675205,9.59 177.172085,11.5471429 177.172085,14.5480952 C177.172085,17.3533333 178.675205,19.3757143 180.831856,19.3757143 C182.988506,19.3757143 184.491626,17.2228571 184.491626,14.417619 C184.295567,11.7428571 182.988506,9.59 180.831856,9.59 L180.831856,9.59 L180.831856,9.59 Z M180.635796,21.6590476 C176.649261,21.6590476 174.03514,18.6580952 174.03514,14.7438095 C174.03514,10.6338095 176.714614,7.43714286 180.831856,7.43714286 C184.818391,7.43714286 187.432512,10.242381 187.432512,14.352381 C187.628571,18.6580952 184.818391,21.6590476 180.635796,21.6590476 L180.635796,21.6590476 L180.635796,21.6590476 Z" id="Shape"></path>
                            <path d="M199.065353,14.5480952 C195.732348,14.5480952 193.902463,15.3961905 193.902463,17.3533333 C193.902463,18.8538095 194.752053,19.5061905 196.059113,19.5061905 C197.562233,19.5061905 199.065353,18.3319048 199.065353,16.7009524 L199.065353,14.5480952 L199.065353,14.5480952 L199.065353,14.5480952 Z M199.522824,21.3328571 L199.326765,19.832381 C198.34647,21.1371429 197.039409,21.6590476 195.34023,21.6590476 C192.856814,21.6590476 191.222989,20.0280952 191.222989,17.6795238 C191.222989,14.352381 194.229228,12.5257143 199.196059,12.5257143 L199.196059,12.1995238 C199.196059,10.3728571 198.215764,9.5247619 196.385878,9.5247619 C195.078818,9.5247619 193.902463,9.85095238 192.726108,10.5033333 L192.072578,8.54619048 C193.379639,7.69809524 194.882759,7.37190476 196.712644,7.37190476 C200.372414,7.37190476 202.00624,9.19857143 202.00624,12.982381 L202.00624,17.9404762 C202.00624,19.2452381 202.00624,20.4195238 202.202299,21.267619 L199.522824,21.267619 L199.522824,21.3328571 L199.522824,21.3328571 Z" id="Shape"></path>
                            <path d="M216.253202,13.2433333 C216.253202,11.2861905 214.946141,9.78571429 213.116256,9.78571429 C210.8289,9.78571429 209.456486,11.7428571 209.456486,14.6133333 C209.456486,17.4185714 210.959606,19.2452381 213.116256,19.2452381 C215.076847,19.2452381 216.449261,17.6142857 216.449261,15.5919048 L216.449261,13.3085714 L216.253202,13.3085714 L216.253202,13.2433333 Z M216.776026,21.3328571 L216.579967,19.18 L216.383908,19.18 C215.534319,20.8109524 214.096552,21.6590476 212.070608,21.6590476 C208.737603,21.6590476 206.254187,18.8538095 206.254187,14.7438095 C206.254187,10.4380952 208.737603,7.43714286 212.201314,7.43714286 C214.031199,7.43714286 215.338259,8.08952381 215.99179,9.26380952 L215.99179,9.26380952 L215.99179,1.50047619 L218.99803,1.50047619 L218.99803,17.6795238 C218.99803,18.9842857 218.99803,20.1585714 219.194089,21.3328571 L216.776026,21.3328571 L216.776026,21.3328571 L216.776026,21.3328571 Z" id="Shape"></path>
                            <path d="M238.8,9.59 C236.64335,9.59 235.14023,11.5471429 235.14023,14.5480952 C235.14023,17.3533333 236.64335,19.3757143 238.8,19.3757143 C240.95665,19.3757143 242.45977,17.2228571 242.45977,14.417619 C242.263711,11.7428571 240.95665,9.59 238.8,9.59 L238.8,9.59 L238.8,9.59 Z M238.669294,21.6590476 C234.682759,21.6590476 232.068637,18.6580952 232.068637,14.7438095 C232.068637,10.6338095 234.748112,7.43714286 238.865353,7.43714286 C242.851888,7.43714286 245.46601,10.242381 245.46601,14.352381 C245.46601,18.6580952 242.786535,21.6590476 238.669294,21.6590476 L238.669294,21.6590476 L238.669294,21.6590476 Z" id="Shape"></path>
                            <path d="M261.869622,21.3328571 L258.863383,21.3328571 L258.863383,13.5695238 C258.863383,11.0904762 257.883087,9.91619048 256.053202,9.91619048 C254.223317,9.91619048 253.046962,11.4166667 253.046962,13.2433333 L253.046962,21.3328571 L250.040722,21.3328571 L250.040722,11.5471429 C250.040722,10.3728571 250.040722,9.06809524 249.844663,7.56761905 L252.524138,7.56761905 L252.720197,9.72047619 L252.916256,9.72047619 C253.765846,8.22 255.399672,7.43714286 257.229557,7.43714286 C260.039737,7.43714286 262.065681,9.59 262.065681,13.2433333 L262.065681,21.3328571 L261.869622,21.3328571 L261.869622,21.3328571 Z" id="Shape"></path>
                            <path d="M282.194417,9.91619048 L278.861412,9.91619048 L278.861412,16.5052381 C278.861412,18.1361905 279.514943,18.9842857 280.691297,18.9842857 C281.214122,18.9842857 281.671593,18.9842857 281.998358,18.7885714 L282.194417,21.0719048 C281.540887,21.267619 280.887356,21.3980952 279.907061,21.3980952 C277.619704,21.3980952 276.116585,20.0933333 276.116585,16.5704762 L276.116585,9.78571429 L274.155993,9.78571429 L274.155993,7.50238095 L276.116585,7.50238095 L276.116585,5.02333333 L279.122824,4.1752381 L279.122824,7.63285714 L282.455829,7.63285714 L282.455829,9.78571429 L282.194417,9.78571429 L282.194417,9.91619048 Z" id="Shape"></path>
                            <path d="M298.271264,21.3328571 L295.265025,21.3328571 L295.265025,13.5695238 C295.265025,11.0904762 294.284729,9.91619048 292.454844,9.91619048 C290.951724,9.91619048 289.448604,10.8947619 289.448604,13.2433333 L289.448604,21.5285714 L286.442365,21.5285714 L286.442365,1.69619048 L289.448604,1.69619048 L289.448604,9.98142857 C290.4289,8.48095238 291.735961,7.82857143 293.565846,7.82857143 C296.376026,7.82857143 298.205911,10.1119048 298.205911,13.6347619 L298.205911,21.3328571 L298.271264,21.3328571 L298.271264,21.3328571 Z" id="Shape"></path>
                            <path d="M311.864696,13.047619 C311.864696,10.8947619 310.884401,9.39428571 308.858456,9.39428571 C307.028571,9.39428571 305.721511,10.8947619 305.525452,13.047619 L311.864696,13.047619 L311.864696,13.047619 Z M314.674877,15.2004762 L305.590805,15.2004762 C305.590805,17.8752381 307.42069,19.18 309.904105,19.18 C311.211166,19.18 312.58358,18.9842857 313.563875,18.527619 L314.0867,20.6804762 C312.779639,21.202381 311.276519,21.5285714 309.446634,21.5285714 C305.133333,21.5285714 302.649918,18.8538095 302.649918,14.6133333 C302.649918,10.5033333 305.329392,7.30666667 309.119869,7.30666667 C312.58358,7.30666667 314.74023,9.98142857 314.74023,13.7652381 C314.870936,14.417619 314.870936,14.8742857 314.674877,15.2004762 L314.674877,15.2004762 L314.674877,15.2004762 Z" id="Shape"></path>
                        </g>
                    </g>
                </g>
            </g>
        </g>
    </g>
</svg>