<?xml version="1.0" encoding="UTF-8" standalone="no"?>
<svg width="400px" height="139px" viewBox="0 0 400 139" version="1.1" xmlns="http://www.w3.org/2000/svg" xmlns:xlink="http://www.w3.org/1999/xlink" xmlns:sketch="http://www.bohemiancoding.com/sketch/ns">
    <!-- Generator: Sketch 3.3.3 (12072) - http://www.bohemiancoding.com/sketch -->
    <title>google-play</title>
    <desc>Created with Sketch.</desc>
    <defs>
        <linearGradient x1="59.9237329%" y1="91.9342662%" x2="33.4208786%" y2="-59.2971531%" id="linearGradient-1">
            <stop stop-color="#D7E69D" offset="0%"></stop>
            <stop stop-color="#94C4AA" offset="44.56%"></stop>
            <stop stop-color="#01A4B6" offset="100%"></stop>
        </linearGradient>
        <linearGradient x1="-32.4651176%" y1="-128.980834%" x2="79.9123408%" y2="114.380091%" id="linearGradient-2">
            <stop stop-color="#ED277B" offset="0%"></stop>
            <stop stop-color="#EE2F7C" offset="1.915717%"></stop>
            <stop stop-color="#F7BD81" offset="70.39%"></stop>
            <stop stop-color="#FEEB74" offset="100%"></stop>
        </linearGradient>
        <linearGradient x1="50.8102994%" y1="74.7709736%" x2="-0.237903284%" y2="-29.2567536%" id="linearGradient-3">
            <stop stop-color="#89CFBD" offset="0%"></stop>
            <stop stop-color="#7DBEBB" offset="9.067577%"></stop>
            <stop stop-color="#457CAC" offset="53.96%"></stop>
            <stop stop-color="#1C5AA2" offset="85.23%"></stop>
            <stop stop-color="#084D9F" offset="100%"></stop>
        </linearGradient>
        <linearGradient x1="119.046996%" y1="35.914226%" x2="-23.054923%" y2="61.3686163%" id="linearGradient-4">
            <stop stop-color="#F04A2B" offset="0%"></stop>
            <stop stop-color="#B54F6B" offset="47.04%"></stop>
            <stop stop-color="#8B5191" offset="83.53%"></stop>
            <stop stop-color="#7851A1" offset="100%"></stop>
        </linearGradient>
    </defs>
    <g id="Page-1" stroke="none" stroke-width="1" fill="none" fill-rule="evenodd" sketch:type="MSPage">
        <g id="waivecar-website@2x" sketch:type="MSArtboardGroup" transform="translate(-767.000000, -1018.000000)">
            <g id="VALUE-PROPOSITION" sketch:type="MSLayerGroup" transform="translate(300.000000, 585.000000)">
                <g id="google-play-+-app-store" transform="translate(0.000000, 434.000000)" sketch:type="MSShapeGroup">
                    <g id="google-play" transform="translate(468.000000, 0.000000)">
                        <g id="Layer_1_1_">
                            <path d="M397.477176,116.906667 C397.477176,128.975714 388.52381,136.412857 376.629557,136.412857 L21.7625616,136.412857 C9.80295567,136.412857 0,126.627143 0,114.558095 L0,22.2461905 C0,10.1771429 9.80295567,0.391428571 21.8932677,0.391428571 L376.433498,0.391428571 C388.52381,0.391428571 397.281117,10.1771429 397.281117,22.2461905 L397.281117,116.841429 L397.477176,116.841429 L397.477176,116.906667 Z" id="Shape" stroke="#FFFFFF" stroke-width="1.5" fill="#010101"></path>
                            <g id="Group" transform="translate(108.486043, 56.757143)" fill="#FFFFFF">
                                <g id="Shape">
                                    <path d="M161.095238,36.272381 L158.415764,38.7514286 C157.762233,39.077619 157.239409,39.4038095 156.585878,39.73 C154.755993,40.5780952 152.795402,40.7085714 151.096223,40.7085714 C149.266338,40.7085714 146.456158,40.5128571 143.645977,38.5557143 C139.659442,35.7504762 138.025616,30.9228571 138.025616,26.8128571 C138.025616,18.2014286 145.149097,13.8957143 150.769458,13.8957143 C152.730049,13.8957143 154.8867,14.417619 156.585878,15.3961905 C159.396059,17.2228571 160.049589,19.7019048 160.572414,20.8761905 L147.501806,26.1604762 L143.188506,26.4866667 C144.495567,33.597619 149.331691,37.707619 154.755993,37.707619 C157.108703,37.9685714 159.134647,37.1204762 161.095238,36.272381 C160.964532,36.272381 161.291297,36.1419048 161.095238,36.272381 L161.095238,36.272381 Z M153.122167,22.2461905 C154.102463,21.92 154.755993,21.5938095 154.755993,20.7457143 C154.755993,18.5928571 152.272578,15.9180952 149.266338,15.9180952 C147.109688,15.9180952 142.796388,17.5490476 142.796388,23.6814286 C142.796388,24.66 142.992447,25.6385714 142.992447,26.682381 L153.122167,22.2461905 L153.122167,22.2461905 Z"></path>
                                    <path d="M133.581609,35.8157143 C133.581609,37.9685714 133.908374,38.2947619 135.738259,38.4904762 C136.718555,38.6861905 137.698851,38.6861905 138.54844,38.8166667 L136.587849,39.9909524 L126.784893,39.9909524 C128.091954,38.36 128.288013,38.1642857 128.288013,36.99 L128.288013,35.6852381 L128.288013,2.41380952 L123.844007,2.41380952 L127.961248,0.456666667 L135.934319,0.456666667 C134.300493,1.4352381 133.646962,2.08761905 133.450903,4.11 L133.581609,35.8157143 L133.581609,35.8157143 Z"></path>
                                    <path d="M118.158292,16.7661905 C119.465353,17.7447619 122.144828,20.0933333 122.144828,24.3990476 C122.144828,28.5090476 119.857471,30.5314286 117.504762,32.3580952 C116.851232,33.0104762 116.001642,33.8585714 116.001642,35.1633333 C116.001642,36.337619 116.851232,37.1204762 117.504762,37.642381 L119.465353,39.1428571 C121.948768,41.2957143 124.105419,43.122381 124.105419,46.9061905 C124.105419,52.1904762 118.942529,57.4747619 109.335632,57.4747619 C101.231856,57.4747619 97.2453202,53.6909524 97.2453202,49.5157143 C97.2453202,47.5585714 98.2256158,44.6880952 101.558621,42.7309524 C105.022332,40.5780952 109.662397,40.2519048 112.145813,40.2519048 C111.296223,39.2733333 110.511987,38.0990476 110.511987,36.4680952 C110.511987,35.4895238 110.838752,34.967619 111.034811,34.3152381 C110.381281,34.3152381 109.858456,34.5109524 109.204926,34.5109524 C103.2578,34.5109524 99.9247947,30.0747619 99.9247947,25.7690476 C99.9247947,23.0942857 101.101149,20.2890476 103.584565,18.3319048 C106.721511,15.6571429 110.511987,15.2004762 113.518227,15.2004762 L125.085714,15.2004762 L121.425944,17.157619 L118.092939,17.157619 L118.092939,16.7661905 L118.158292,16.7661905 Z M114.23711,41.6219048 L112.930049,41.6219048 C112.407225,41.6219048 109.466338,41.817619 107.113629,42.47 C105.937274,42.9919048 102.277504,44.2966667 102.277504,48.2761905 C102.277504,52.2557143 106.06798,55.0609524 112.08046,55.0609524 C117.374056,55.0609524 120.380296,52.3861905 120.380296,49.1242857 C120.314943,46.0580952 118.550411,44.557619 114.23711,41.6219048 L114.23711,41.6219048 Z M115.870936,30.9880952 C117.177997,29.6833333 117.177997,27.8566667 117.177997,26.8780952 C117.177997,22.8985714 114.89064,16.6357143 110.054516,16.6357143 C108.551396,16.6357143 107.048276,17.2880952 106.06798,18.462381 C105.087685,19.6366667 104.891626,21.1371429 104.891626,22.572381 C104.891626,26.3561905 107.048276,32.4885714 111.819048,32.4885714 C113.518227,32.4885714 115.021346,31.8361905 115.870936,30.9880952 L115.870936,30.9880952 Z"></path>
                                    <path d="M83.5865353,40.7738095 C74.6331691,40.7738095 69.9931034,33.8585714 69.9931034,27.5304762 C69.9931034,20.2238095 75.9402299,13.9609524 84.4361248,13.9609524 C92.7359606,13.9609524 97.8334975,20.4195238 97.8334975,27.2042857 C97.8334975,33.7933333 92.6706076,40.7738095 83.5865353,40.7738095 L83.5865353,40.7738095 Z M90.5139573,36.272381 C91.8210181,34.4457143 92.1477833,32.2928571 92.1477833,30.14 C92.1477833,25.1819048 89.8604269,15.9180952 82.8676519,15.9180952 C81.0377668,15.9180952 79.2078818,16.5704762 77.900821,17.7447619 C75.7441708,19.7019048 75.2213465,22.1809524 75.2213465,24.5295238 C75.2213465,30.0095238 77.900821,39.077619 84.6975369,39.077619 C87.0502463,39.1428571 89.3376026,38.0990476 90.5139573,36.272381 L90.5139573,36.272381 Z"></path>
                                    <path d="M53.9162562,40.7738095 C44.96289,40.7738095 40.3228243,33.8585714 40.3228243,27.5304762 C40.3228243,20.2238095 46.2699507,13.9609524 54.7658456,13.9609524 C63.0656814,13.9609524 68.1632184,20.4195238 68.1632184,27.2042857 C67.9671593,33.7933333 63.0003284,40.7738095 53.9162562,40.7738095 L53.9162562,40.7738095 Z M60.8436782,36.272381 C62.1507389,34.4457143 62.4775041,32.2928571 62.4775041,30.14 C62.4775041,25.1819048 60.1901478,15.9180952 53.1973727,15.9180952 C51.3674877,15.9180952 49.5376026,16.5704762 48.2305419,17.7447619 C46.0738916,19.7019048 45.5510673,22.1809524 45.5510673,24.5295238 C45.5510673,30.0095238 48.3612479,39.077619 55.0272578,39.077619 C57.3799672,39.1428571 59.5366174,38.0990476 60.8436782,36.272381 L60.8436782,36.272381 Z"></path>
                                    <path d="M36.6630542,38.8166667 L29.2128079,40.447619 C26.2065681,40.9695238 23.3963875,41.2957143 20.5862069,41.2957143 C6.14318555,41.2957143 0.522824302,30.7271429 0.522824302,22.2461905 C0.522824302,12.1342857 8.2998358,2.74 21.7625616,2.74 C24.5727422,2.74 27.2522167,3.26190476 29.7356322,3.91428571 C33.7221675,5.08857143 35.5520525,6.39333333 36.6630542,7.24142857 L32.3497537,11.3514286 L30.5198686,11.677619 L31.8269294,9.5247619 C29.9970443,7.89380952 26.8600985,4.56666667 20.5862069,4.56666667 C12.2863711,4.56666667 6.01247947,10.8295238 6.01247947,19.9628571 C6.01247947,29.7485714 13.1359606,39.012381 24.5727422,39.012381 C27.9057471,39.012381 29.7356322,38.36 31.173399,37.707619 L31.173399,29.2919048 L23.2003284,29.8138095 L27.3175698,27.5304762 L38.4275862,27.5304762 L37.1205255,28.8352381 C36.7937603,29.1614286 36.5977011,29.3571429 36.5977011,29.6833333 C36.5977011,30.2052381 36.401642,31.6404762 36.401642,32.162381 L36.401642,38.9471429 L36.6630542,38.9471429 L36.6630542,38.8166667 Z"></path>
                                </g>
                                <g transform="translate(173.839080, 4.566667)" id="Shape">
                                    <path d="M3.33300493,32.0971429 L3.33300493,46.3190476 L0.522824302,46.3190476 L0.522824302,10.1119048 L3.33300493,10.1119048 L3.33300493,14.2219048 C5.16288998,11.5471429 8.49589491,9.39428571 12.4170772,9.39428571 C19.3444992,9.39428571 24.180624,14.6785714 24.180624,23.0942857 C24.180624,31.3795238 19.3444992,36.7942857 12.4170772,36.7942857 C8.8226601,36.8595238 5.48965517,35.0328571 3.33300493,32.0971429 L3.33300493,32.0971429 Z M21.0436782,23.1595238 C21.0436782,16.8966667 17.7106732,11.9385714 11.9596059,11.9385714 C8.2998358,11.9385714 4.83612479,14.7438095 3.33300493,17.2228571 L3.33300493,28.77 C4.83612479,31.2490476 8.2998358,34.25 11.9596059,34.25 C17.7760263,34.3804762 21.0436782,29.422381 21.0436782,23.1595238 L21.0436782,23.1595238 Z"></path>
                                    <path d="M28.0364532,36.2071429 L28.0364532,0 L30.8466338,0 L30.8466338,36.2071429 L28.0364532,36.2071429 L28.0364532,36.2071429 Z"></path>
                                    <path d="M62.6735632,43.84 C63.3270936,44.1661905 64.3073892,44.3619048 64.9609195,44.3619048 C66.5947455,44.3619048 67.9671593,43.7095238 68.9474548,41.2304762 L70.908046,36.5985714 L59.7980296,10.1119048 L62.9349754,10.1119048 L72.5418719,32.9452381 L82.0180624,10.1119048 L85.1550082,10.1119048 L71.5615764,42.0133333 C70.0584565,45.3404762 67.9018062,46.8409524 64.9609195,46.8409524 C63.980624,46.8409524 62.8042693,46.6452381 62.1507389,46.5147619 L62.6735632,43.84 L62.6735632,43.84 Z"></path>
                                    <path d="M54.3737274,36.2071429 C54.1776683,35.3590476 54.0469622,34.5761905 53.8509031,33.9238095 C53.654844,33.2714286 53.654844,32.6190476 53.654844,31.9666667 C52.6745484,33.4671429 51.3674877,34.6414286 49.5376026,35.4242857 C47.7077176,36.4028571 46.0738916,36.7290476 43.9172414,36.7290476 C41.1070608,36.7290476 38.9504105,36.0766667 37.4472906,34.7719048 C35.9441708,33.4671429 35.1599343,31.4447619 35.1599343,29.1614286 C35.1599343,26.8780952 36.336289,24.8557143 38.4929392,23.3552381 C40.6495895,21.8547619 43.6558292,21.202381 47.1195402,21.202381 L53.720197,21.202381 L53.720197,17.8752381 C53.720197,16.0485714 53.0666667,14.5480952 51.7596059,13.4390476 C50.4525452,12.4604762 48.6226601,11.8080952 46.2699507,11.8080952 C44.1133005,11.8080952 42.4794745,12.33 41.1070608,13.3085714 C39.8,14.2871429 39.1464696,15.4614286 39.1464696,16.9619048 L36.336289,16.9619048 L36.336289,16.7661905 C36.1402299,14.8090476 37.1858785,13.1128571 39.0157635,11.4819048 C40.9763547,9.98142857 43.4597701,9.19857143 46.4660099,9.19857143 C49.6029557,9.19857143 52.0863711,9.85095238 53.9162562,11.3514286 C55.7461412,12.8519048 56.7264368,15.0047619 56.7264368,17.6142857 L56.7264368,30.5314286 C56.7264368,31.51 56.7264368,32.3580952 56.9224959,33.2061905 C57.118555,34.0542857 57.2492611,35.0328571 57.4453202,35.8809524 L54.4390805,35.8809524 L54.4390805,36.2071429 L54.3737274,36.2071429 Z M44.2440066,34.0542857 C46.727422,34.0542857 48.3612479,33.532381 50.191133,32.4233333 C52.0210181,31.4447619 53.1973727,29.9442857 53.8509031,28.3133333 L53.8509031,23.3552381 L47.2502463,23.3552381 C44.7668309,23.3552381 42.6101806,23.8771429 40.9763547,24.9861905 C39.3425287,26.1604762 38.4929392,27.4652381 38.4929392,29.0961905 C38.4929392,30.5966667 39.0157635,31.7709524 40.1267652,32.7495238 C40.9110016,33.532381 42.4141215,34.0542857 44.2440066,34.0542857 L44.2440066,34.0542857 Z"></path>
                                </g>
                            </g>
                            <g id="Group" transform="translate(41.172414, 53.495238)">
                                <path d="M30.9119869,29.487619 L40.0614122,20.3542857 L30.9119869,29.487619 L1.8952381,0.521904762 L30.9119869,29.487619 L1.8952381,58.3880952 L30.9119869,29.487619 L40.0614122,38.5557143 L30.9119869,29.487619 Z" id="Shape"></path>
                                <path d="M40.0614122,20.3542857 L4.57471264,1.04380952 C3.59441708,0.521904762 2.61412151,0.391428571 1.8952381,0.521904762 L30.9119869,29.487619 L40.0614122,20.3542857 L40.0614122,20.3542857 Z" id="Shape" fill="url(#linearGradient-1)"></path>
                                <path d="M40.0614122,38.5557143 L52.1517241,31.9666667 C54.6351396,30.6619048 54.6351396,28.5090476 52.1517241,27.0085714 L40.0614122,20.4195238 L30.9773399,29.487619 L40.0614122,38.5557143 L40.0614122,38.5557143 Z" id="Shape" fill="url(#linearGradient-2)"></path>
                                <path d="M1.8952381,0.521904762 C0.914942529,0.848095238 0.0653530378,2.02238095 0.0653530378,3.65333333 L0.0653530378,55.452381 C0.0653530378,57.0833333 0.718883415,58.1271429 1.69917898,58.4533333 L30.7159278,29.487619 L1.8952381,0.521904762 L1.8952381,0.521904762 Z" id="Shape" fill="url(#linearGradient-3)"></path>
                                <path d="M1.8952381,58.3880952 C2.74482759,58.7142857 3.52906404,58.5838095 4.57471264,57.8661905 L40.0614122,38.4904762 L30.9773399,29.422381 L1.8952381,58.3880952 L1.8952381,58.3880952 Z" id="Shape" fill="url(#linearGradient-4)"></path>
                            </g>
                            <g id="Group" transform="translate(108.486043, 22.180952)" fill="#FFFFFF">
                                <path d="M0.392118227,9.5247619 C0.392118227,3.91428571 4.50935961,0.456666667 9.67224959,0.456666667 C13.1359606,0.456666667 15.2926108,2.08761905 16.7957307,4.11 L14.3123153,5.61047619 C13.3320197,4.30571429 11.6328407,3.32714286 9.67224959,3.32714286 C6.20853859,3.32714286 3.52906404,6.00190476 3.52906404,9.78571429 C3.52906404,13.4390476 6.20853859,16.2442857 9.67224959,16.2442857 C11.5021346,16.2442857 13.0052545,15.3961905 13.789491,14.6133333 L13.789491,11.9385714 L8.49589491,11.9385714 L8.49589491,9.26380952 L16.9264368,9.26380952 L16.9264368,15.8528571 C15.2926108,17.81 12.8091954,19.18 9.60689655,19.18 C4.50935961,18.5928571 0.392118227,15.0047619 0.392118227,9.5247619 L0.392118227,9.5247619 Z" id="Shape"></path>
                                <path d="M20.9129721,18.2666667 L20.9129721,0.717619048 L33.0032841,0.717619048 L33.0032841,3.39238095 L24.0499179,3.39238095 L24.0499179,8.02428571 L32.807225,8.02428571 L32.807225,10.6990476 L24.0499179,10.6990476 L24.0499179,15.6571429 L33.0032841,15.6571429 L33.0032841,18.3319048 L20.9129721,18.3319048 L20.9129721,18.2666667 Z" id="Shape"></path>
                                <path d="M41.499179,18.2666667 L41.499179,3.39238095 L36.2055829,3.39238095 L36.2055829,0.717619048 L49.9297209,0.717619048 L49.9297209,3.39238095 L44.6361248,3.39238095 L44.6361248,18.2666667 L41.499179,18.2666667 L41.499179,18.2666667 Z" id="Shape"></path>
                                <path d="M60.8436782,18.2666667 L60.8436782,0.717619048 L63.980624,0.717619048 L63.980624,18.3971429 L60.8436782,18.3971429 L60.8436782,18.2666667 L60.8436782,18.2666667 Z" id="Shape"></path>
                                <path d="M72.607225,18.2666667 L72.607225,3.39238095 L67.3136289,3.39238095 L67.3136289,0.717619048 L81.0377668,0.717619048 L81.0377668,3.39238095 L75.7441708,3.39238095 L75.7441708,18.2666667 L72.607225,18.2666667 L72.607225,18.2666667 Z" id="Shape"></path>
                                <path d="M91.0367816,9.5247619 C91.0367816,4.24047619 94.8272578,0.456666667 100.120854,0.456666667 C105.41445,0.456666667 109.204926,4.24047619 109.204926,9.5247619 C109.204926,14.8090476 105.41445,18.5928571 100.120854,18.5928571 C94.8272578,18.5928571 91.0367816,14.8090476 91.0367816,9.5247619 L91.0367816,9.5247619 Z M105.937274,9.5247619 C105.937274,5.87142857 103.649918,3.06619048 100.120854,3.06619048 C96.4610837,3.06619048 94.3044335,5.74095238 94.3044335,9.5247619 C94.3044335,13.1780952 96.5917898,15.9833333 100.120854,15.9833333 C103.649918,15.9833333 105.937274,13.1780952 105.937274,9.5247619 L105.937274,9.5247619 Z" id="Shape"></path>
                                <path d="M124.955008,18.2666667 L115.674877,5.74095238 L115.674877,18.2666667 L112.537931,18.2666667 L112.537931,0.717619048 L115.674877,0.717619048 L124.758949,12.982381 L124.758949,0.717619048 L127.895895,0.717619048 L127.895895,18.3971429 L124.889655,18.3971429 L124.889655,18.2666667 L124.955008,18.2666667 Z" id="Shape"></path>
                            </g>
                        </g>
                    </g>
                </g>
            </g>
        </g>
    </g>
</svg>