<?xml version="1.0" encoding="UTF-8" standalone="no"?>
<svg width="648px" height="92px" viewBox="0 0 648 92" version="1.1" xmlns="http://www.w3.org/2000/svg" xmlns:xlink="http://www.w3.org/1999/xlink" xmlns:sketch="http://www.bohemiancoding.com/sketch/ns">
    <!-- Generator: Sketch 3.3.3 (12072) - http://www.bohemiancoding.com/sketch -->
    <title>LOGO Copy</title>
    <desc>Created with Sketch.</desc>
    <defs></defs>
    <g id="Page-1" stroke="none" stroke-width="1" fill="none" fill-rule="evenodd" sketch:type="MSPage">
        <g id="waivecar-website@2x" sketch:type="MSArtboardGroup" transform="translate(-201.000000, -6488.000000)">
            <g id="FOOTER" sketch:type="MSLayerGroup" transform="translate(1.000000, 6368.000000)">
                <g id="NAV-+-LOGO" transform="translate(200.000000, 120.000000)" sketch:type="MSShapeGroup">
                    <g id="LOGO-Copy">
                        <g id="W" transform="translate(132.651801, 19.548687)">
                            <path d="M1.04725106,1.43878333 L0.816855829,0.517202392 L2.42962247,0.517202392 L2.58321929,1.13158968 L14.2565778,50.8201618 L31.843414,1.05479127 L31.9970108,0.517202392 L33.0721886,0.517202392 L33.2257854,1.05479127 L50.8126216,50.8201618 L62.4859801,1.13158968 L62.6395769,0.517202392 L64.2523435,0.517202392 L64.0219483,1.43878333 L51.7342025,53.661703 L51.5806057,54.2760903 L50.4286295,54.2760903 L50.2750327,53.7385014 L32.5345997,3.58913884 L14.7941667,53.7385014 L14.6405699,54.2760903 L13.4885937,54.2760903 L13.3349969,53.661703 L1.04725106,1.43878333 L1.04725106,1.43878333 Z" id="Fill-1" fill="#FFFFFF"></path>
                            <path d="M1.04725106,1.43878333 L0.816855829,0.517202392 L2.42962247,0.517202392 L2.58321929,1.13158968 L14.2565778,50.8201618 L31.843414,1.05479127 L31.9970108,0.517202392 L33.0721886,0.517202392 L33.2257854,1.05479127 L50.8126216,50.8201618 L62.4859801,1.13158968 L62.6395769,0.517202392 L64.2523435,0.517202392 L64.0219483,1.43878333 L51.7342025,53.661703 L51.5806057,54.2760903 L50.4286295,54.2760903 L50.2750327,53.7385014 L32.5345997,3.58913884 L14.7941667,53.7385014 L14.6405699,54.2760903 L13.4885937,54.2760903 L13.3349969,53.661703 L1.04725106,1.43878333 L1.04725106,1.43878333 Z" id="Stroke-2" stroke="#FFFFFF" stroke-width="0.8" stroke-linejoin="round"></path>
                        </g>
                        <g id="A" transform="translate(220.224556, 19.548687)">
                            <path d="M8.78132493,41.2971588 L8.01334081,41.2971588 L8.01334081,40.4236118 L2.09986315,53.8152998 L1.94626632,54.2760903 L0.256701276,54.2760903 L0.717491743,53.2009125 L23.7570151,0.977992859 L23.910612,0.517202392 L24.9857897,0.517202392 L25.1393865,0.977992859 L48.1789099,53.2009125 L48.6397004,54.2760903 L46.9501353,54.2760903 L46.7965385,53.8152998 L40.729464,40.0757848 L40.729464,41.2971588 L39.9614799,41.2971588 L8.78132493,41.2971588 L8.78132493,41.2971588 Z M40.5905287,39.7611906 L24.4482008,3.20514679 L8.30587295,39.7611906 L8.78132493,39.7611906 L39.9614799,39.7611906 L40.5905287,39.7611906 L40.5905287,39.7611906 Z" id="Fill-4" fill="#FFFFFF"></path>
                            <path d="M8.78132493,41.2971588 L8.01334081,41.2971588 L8.01334081,40.4236118 L2.09986315,53.8152998 L1.94626632,54.2760903 L0.256701276,54.2760903 L0.717491743,53.2009125 L23.7570151,0.977992859 L23.910612,0.517202392 L24.9857897,0.517202392 L25.1393865,0.977992859 L48.1789099,53.2009125 L48.6397004,54.2760903 L46.9501353,54.2760903 L46.7965385,53.8152998 L40.729464,40.0757848 L40.729464,41.2971588 L39.9614799,41.2971588 L8.78132493,41.2971588 L8.78132493,41.2971588 Z M40.5905287,39.7611906 L24.4482008,3.20514679 L8.30587295,39.7611906 L8.78132493,39.7611906 L39.9614799,39.7611906 L40.5905287,39.7611906 L40.5905287,39.7611906 Z" id="Stroke-5" stroke="#FFFFFF" stroke-width="0.8" stroke-linejoin="round"></path>
                        </g>
                        <g id="I" transform="translate(292.833963, 19.548687)">
                            <path d="M0.193866212,1.2851865 L0.193866212,0.517202392 L1.72983444,0.517202392 L1.72983444,1.2851865 L1.72983444,53.5081062 L1.72983444,54.2760903 L0.193866212,54.2760903 L0.193866212,53.5081062 L0.193866212,1.2851865 L0.193866212,1.2851865 Z" id="Fill-10" fill="#FFFFFF"></path>
                            <path d="M0.193866212,1.2851865 L0.193866212,0.517202392 L1.72983444,0.517202392 L1.72983444,1.2851865 L1.72983444,53.5081062 L1.72983444,54.2760903 L0.193866212,54.2760903 L0.193866212,53.5081062 L0.193866212,1.2851865 L0.193866212,1.2851865 Z" id="Stroke-11" stroke="#FFFFFF" stroke-width="0.8" stroke-linejoin="round"></path>
                        </g>
                        <g id="V" transform="translate(322.553327, 19.548687)">
                            <path d="M1.36840806,1.59238015 L0.907617588,0.517202392 L2.59718264,0.517202392 L2.75077946,0.977992859 L23.6399473,51.5113475 L44.3755184,0.977992859 L44.5291152,0.517202392 L46.2186802,0.517202392 L45.7578898,1.59238015 L24.331133,53.8152998 L24.1775362,54.2760903 L23.1023584,54.2760903 L22.9487616,53.8152998 L1.36840806,1.59238015 L1.36840806,1.59238015 Z" id="Fill-13" fill="#FFFFFF"></path>
                            <path d="M1.36840806,1.59238015 L0.907617588,0.517202392 L2.59718264,0.517202392 L2.75077946,0.977992859 L23.6399473,51.5113475 L44.3755184,0.977992859 L44.5291152,0.517202392 L46.2186802,0.517202392 L45.7578898,1.59238015 L24.331133,53.8152998 L24.1775362,54.2760903 L23.1023584,54.2760903 L22.9487616,53.8152998 L1.36840806,1.59238015 L1.36840806,1.59238015 Z" id="Stroke-14" stroke="#FFFFFF" stroke-width="0.8" stroke-linejoin="round"></path>
                        </g>
                        <g id="E" transform="translate(400.748073, 19.548687)">
                            <path d="M36.3745203,0.517202392 L37.1425044,0.517202392 L37.1425044,2.05317062 L36.3745203,2.05317062 L1.81523518,2.05317062 L1.81523518,26.6286622 L26.8515173,26.6286622 L27.6195014,26.6286622 L27.6195014,28.1646305 L26.8515173,28.1646305 L1.81523518,28.1646305 L1.81523518,52.7401221 L36.3745203,52.7401221 L37.1425044,52.7401221 L37.1425044,54.2760903 L36.3745203,54.2760903 L1.04725106,54.2760903 L0.27926695,54.2760903 L0.27926695,53.5081062 L0.27926695,28.1646305 L0.27926695,26.6286622 L0.27926695,1.2851865 L0.27926695,0.517202392 L1.04725106,0.517202392 L36.3745203,0.517202392 L36.3745203,0.517202392 Z" id="Fill-16" fill="#FFFFFF"></path>
                            <path d="M36.3745203,0.517202392 L37.1425044,0.517202392 L37.1425044,2.05317062 L36.3745203,2.05317062 L1.81523518,2.05317062 L1.81523518,26.6286622 L26.8515173,26.6286622 L27.6195014,26.6286622 L27.6195014,28.1646305 L26.8515173,28.1646305 L1.81523518,28.1646305 L1.81523518,52.7401221 L36.3745203,52.7401221 L37.1425044,52.7401221 L37.1425044,54.2760903 L36.3745203,54.2760903 L1.04725106,54.2760903 L0.27926695,54.2760903 L0.27926695,53.5081062 L0.27926695,28.1646305 L0.27926695,26.6286622 L0.27926695,1.2851865 L0.27926695,0.517202392 L1.04725106,0.517202392 L36.3745203,0.517202392 L36.3745203,0.517202392 Z" id="Stroke-17" stroke="#FFFFFF" stroke-width="0.8" stroke-linejoin="round"></path>
                        </g>
                        <g id="C" transform="translate(464.979472, 19.548687)">
                            <path d="M41.8970242,42.1419413 L42.1274194,41.7579492 L43.8937829,41.7579492 L43.2793956,42.9099254 C42.4346131,44.2922968 41.4362337,45.5210714 40.4378544,46.749846 L40.361056,46.749846 C36.2139418,51.4345491 30.3004641,54.3528887 23.5422039,54.2760903 C10.7936676,54.2760903 0.425882099,42.2187397 0.349083688,27.3966463 C0.349083688,12.6513514 10.870466,0.594000803 23.6190023,0.517202392 C29.7628752,0.517202392 35.8299497,3.35874361 40.1306607,8.0434467 L40.2074591,8.0434467 C41.2058385,9.27222128 42.2042178,10.6545927 43.0490004,12.0369641 L43.6633877,13.1889403 L41.8970242,13.1889403 L41.666629,12.8049482 C40.9754433,11.4225768 39.9770639,10.1938022 39.055483,9.11862446 C34.9083688,4.58751819 29.53248,2.12996903 23.6190023,2.05317062 C11.5616517,2.05317062 1.96185032,13.3425371 1.88505191,27.3966463 C1.88505191,41.527554 11.6384501,52.8169205 23.5422039,52.7401221 C29.916472,52.7401221 35.2923608,50.2057745 39.2090798,45.6746682 C40.2074591,44.5994905 41.2058385,43.3707159 41.8970242,42.1419413 L41.8970242,42.1419413 Z" id="Fill-7" fill="#25C155"></path>
                            <path d="M41.8970242,42.1419413 L42.1274194,41.7579492 L43.8937829,41.7579492 L43.2793956,42.9099254 C42.4346131,44.2922968 41.4362337,45.5210714 40.4378544,46.749846 L40.361056,46.749846 C36.2139418,51.4345491 30.3004641,54.3528887 23.5422039,54.2760903 C10.7936676,54.2760903 0.425882099,42.2187397 0.349083688,27.3966463 C0.349083688,12.6513514 10.870466,0.594000803 23.6190023,0.517202392 C29.7628752,0.517202392 35.8299497,3.35874361 40.1306607,8.0434467 L40.2074591,8.0434467 C41.2058385,9.27222128 42.2042178,10.6545927 43.0490004,12.0369641 L43.6633877,13.1889403 L41.8970242,13.1889403 L41.666629,12.8049482 C40.9754433,11.4225768 39.9770639,10.1938022 39.055483,9.11862446 C34.9083688,4.58751819 29.53248,2.12996903 23.6190023,2.05317062 C11.5616517,2.05317062 1.96185032,13.3425371 1.88505191,27.3966463 C1.88505191,41.527554 11.6384501,52.8169205 23.5422039,52.7401221 C29.916472,52.7401221 35.2923608,50.2057745 39.2090798,45.6746682 C40.2074591,44.5994905 41.2058385,43.3707159 41.8970242,42.1419413 L41.8970242,42.1419413 Z" id="Stroke-8" stroke="#25B952" stroke-width="0.8" stroke-linejoin="round"></path>
                        </g>
                        <g id="A" transform="translate(532.003540, 19.548687)">
                            <path d="M8.83879897,41.2971588 L8.07081486,41.2971588 L8.07081486,40.4236118 L2.15733719,53.8152998 L2.00374037,54.2760903 L0.314175319,54.2760903 L0.774965787,53.2009125 L23.8144892,0.977992859 L23.968086,0.517202392 L25.0432638,0.517202392 L25.1968606,0.977992859 L48.236384,53.2009125 L48.6971744,54.2760903 L47.0076094,54.2760903 L46.8540126,53.8152998 L40.7869381,40.0757848 L40.7869381,41.2971588 L40.018954,41.2971588 L8.83879897,41.2971588 L8.83879897,41.2971588 Z M40.6480028,39.7611906 L24.5056749,3.20514679 L8.36334699,39.7611906 L8.83879897,39.7611906 L40.018954,39.7611906 L40.6480028,39.7611906 L40.6480028,39.7611906 Z" id="Fill-19" fill="#25C155"></path>
                            <path d="M8.83879897,41.2971588 L8.07081486,41.2971588 L8.07081486,40.4236118 L2.15733719,53.8152998 L2.00374037,54.2760903 L0.314175319,54.2760903 L0.774965787,53.2009125 L23.8144892,0.977992859 L23.968086,0.517202392 L25.0432638,0.517202392 L25.1968606,0.977992859 L48.236384,53.2009125 L48.6971744,54.2760903 L47.0076094,54.2760903 L46.8540126,53.8152998 L40.7869381,40.0757848 L40.7869381,41.2971588 L40.018954,41.2971588 L8.83879897,41.2971588 L8.83879897,41.2971588 Z M40.6480028,39.7611906 L24.5056749,3.20514679 L8.36334699,39.7611906 L8.83879897,39.7611906 L40.018954,39.7611906 L40.6480028,39.7611906 L40.6480028,39.7611906 Z" id="Stroke-20" stroke="#25B952" stroke-width="0.8" stroke-linejoin="round"></path>
                        </g>
                        <g id="R" transform="translate(608.801951, 19.548687)">
                            <path d="M14.5986798,28.7022193 L13.9437988,28.0064955 L1.85014354,28.1552052 L1.85014354,53.5081062 L1.85014354,54.2760903 L0.314175319,54.2760903 L0.314175319,53.5081062 L0.35117819,28.1646305 L0.314175319,28.1646305 L0.314175319,26.6286622 L0.353970859,26.6286622 C0.365839705,18.2064597 0.378406717,9.78418741 0.39097373,1.36198492 L0.39097373,0.594000803 L1.15895784,0.594000803 L22.9697066,0.517202392 C34.2590731,0.517202392 38.7901794,7.04506735 38.713381,14.4945132 C38.7901794,21.3295718 28.4991923,27.9342352 19.8209718,27.9342352 L15.9978072,27.9812219 C25.0251114,37.8006667 27.5399103,36.2014446 37.3310096,53.3545094 L37.9453968,54.5064855 L36.1790334,54.5064855 L35.9486382,54.1224935 C26.963224,38.3020207 24.8128685,39.9915858 14.5986798,28.7022193 L14.5986798,28.7022193 Z M1.85014354,26.619237 L19.8209718,26.398267 C28.0384018,26.398267 37.2542111,20.5615877 37.1774127,14.4945132 C37.2542111,7.50585782 33.5678874,2.12996903 22.9697066,2.05317062 L1.85014354,2.05317062 L1.85014354,26.619237 L1.85014354,26.619237 Z" id="Fill-22" fill="#25C254"></path>
                            <path d="M14.5986798,28.7022193 L13.9437988,28.0064955 L1.85014354,28.1552052 L1.85014354,53.5081062 L1.85014354,54.2760903 L0.314175319,54.2760903 L0.314175319,53.5081062 L0.35117819,28.1646305 L0.314175319,28.1646305 L0.314175319,26.6286622 L0.353970859,26.6286622 C0.365839705,18.2064597 0.378406717,9.78418741 0.39097373,1.36198492 L0.39097373,0.594000803 L1.15895784,0.594000803 L22.9697066,0.517202392 C34.2590731,0.517202392 38.7901794,7.04506735 38.713381,14.4945132 C38.7901794,21.3295718 28.4991923,27.9342352 19.8209718,27.9342352 L15.9978072,27.9812219 C25.0251114,37.8006667 27.5399103,36.2014446 37.3310096,53.3545094 L37.9453968,54.5064855 L36.1790334,54.5064855 L35.9486382,54.1224935 C26.963224,38.3020207 24.8128685,39.9915858 14.5986798,28.7022193 L14.5986798,28.7022193 Z M1.85014354,26.619237 L19.8209718,26.398267 C28.0384018,26.398267 37.2542111,20.5615877 37.1774127,14.4945132 C37.2542111,7.50585782 33.5678874,2.12996903 22.9697066,2.05317062 L1.85014354,2.05317062 L1.85014354,26.619237 L1.85014354,26.619237 Z" id="Stroke-23" stroke="#25C253" stroke-width="0.8" stroke-linejoin="round"></path>
                        </g>
                        <path d="M32.0344326,37.2864106 L28.7293082,52.7951377 L54.407625,32.9643077 L53.3906744,45.1678965 L83.8996113,20.7607051 C75.7640065,8.55715825 61.7806914,0.421413828 45.7634751,0.421413828 C20.5935498,0.421413828 0,21.0149776 0,46.184861 C0,52.7951377 1.27120919,58.896925 3.81361362,64.4902371 L32.0344326,37.2864106 L32.0344326,37.2864106 Z" id="Fill-25" fill="#25C155"></path>
                        <path d="M88.4759588,29.6591694 L43.2210288,64.9987124 L43.7295739,52.540893 L18.3053761,72.371709 L19.068096,56.8629959 L3.81361362,64.7444678 C10.9323795,80.7616701 26.9495818,91.9482942 45.7634751,91.9482942 C71.187659,91.9482942 91.5269502,71.3547444 91.5269502,46.184861 C91.5269502,40.3373043 90.50986,34.7439922 88.4759588,29.6591694 L88.4759588,29.6591694 Z" id="Fill-26" fill="#25C155"></path>
                    </g>
                </g>
            </g>
        </g>
    </g>
</svg>