<?xml version="1.0" encoding="UTF-8" standalone="no"?>
<svg width="305px" height="317px" viewBox="0 0 305 317" version="1.1" xmlns="http://www.w3.org/2000/svg" xmlns:xlink="http://www.w3.org/1999/xlink" xmlns:sketch="http://www.bohemiancoding.com/sketch/ns">
    <!-- Generator: Sketch 3.3.3 (12072) - http://www.bohemiancoding.com/sketch -->
    <title>Fill 9 + Fill 10</title>
    <desc>Created with Sketch.</desc>
    <defs></defs>
    <g id="Page-1" stroke="none" stroke-width="1" fill="none" fill-rule="evenodd" sketch:type="MSPage">
        <g id="waivecar-website@2x" sketch:type="MSArtboardGroup" transform="translate(-2196.000000, -5891.000000)" fill="#25C155">
            <g id="ABOUT-US" sketch:type="MSLayerGroup" transform="translate(200.000000, 5891.000000)">
                <g id="About-us-+-WaiveCar-is-a-revolu-+-Fill-9-+-Fill-10" sketch:type="MSShapeGroup">
                    <g id="Fill-9-+-Fill-10" transform="translate(1996.000000, 0.000000)">
                        <path d="M106.485312,127.914702 L95.4987841,181.727109 L180.8558,112.917807 L177.475366,155.261996 L278.889794,70.5735686 C251.846318,28.2295243 205.364531,0 152.121875,0 C68.4547973,0 0,71.4558472 0,158.790675 C0,181.727109 4.22561279,202.899179 12.676792,222.306935 L106.485312,127.914702 L106.485312,127.914702 Z" id="Fill-9"></path>
                        <path d="M294.00008,100.633914 L143.568654,223.255574 L145.259104,180.029251 L60.7468015,248.838505 L63.2821506,195.026147 L12.5748899,222.373392 C36.238303,277.950114 89.4809128,316.765625 152.019973,316.765625 C236.532229,316.765625 304.141848,245.309826 304.141848,157.974999 C304.141848,137.685061 300.760949,118.277306 294.00008,100.633914 L294.00008,100.633914 Z" id="Fill-10"></path>
                    </g>
                </g>
            </g>
        </g>
    </g>
</svg>