<?xml version="1.0" encoding="utf-8"?>
<!-- Generator: Adobe Illustrator 18.1.0, SVG Export Plug-In . SVG Version: 6.00 Build 0)  -->
<svg version="1.1" id="Capa_1" xmlns="http://www.w3.org/2000/svg" xmlns:xlink="http://www.w3.org/1999/xlink" x="0px" y="0px"
	 viewBox="0 0 100 100" enable-background="new 0 0 100 100" xml:space="preserve">
<path fill="#575756" d="M79.8,46.8c-3.8-3.2-7-7-10.4-10.6c-1.8-1.9-4.6-5.7-7.6-5.9c-0.2-0.3-0.5-0.5-1.2-0.4
	c-0.4,0.1-0.7,0.4-0.8,0.8c-0.6,2.3-0.5,4.7-0.5,7.1c-8.8-1.2-19.1,3.2-26.1,7.9c-7.7,5.1-13.7,13.6-13.6,23.1
	c0,0.4,0.3,0.6,0.6,0.7c0.3,0.3,0.7,0.4,1.1,0.2C32.9,61.5,45,54.3,59.7,56.8c0,0,0.1,0,0.1,0c-0.9,2.9-1,6.2-1,9.2
	c0,0.9,0.8,1.2,1.4,1.1c0.3,0.4,1,0.7,1.5,0.2c6.6-5.5,13.8-11.7,18.2-19.2C80.2,47.8,80.2,47.1,79.8,46.8z M76.5,49.5
	c-1.7,2.5-3.9,4.7-6.1,6.9c-3,3-6.4,5.6-9.3,8.7c0-2.7-0.1-5.4,0.1-8.2c0-0.3-0.1-0.5-0.3-0.6c0.3-0.6,0.2-1.4-0.6-1.6
	c-14.5-3.1-27.9,3.8-39.1,12.6c1.5-8.8,6.7-15.4,14.2-20.4c7.5-5,15.3-6,23.9-7c0,0,0,0.1,0,0.1c-0.1,0.8,1.2,0.9,1.4,0.2
	c0-0.2,0.1-0.3,0.1-0.5c0.6-0.3,0.8-1.1,0.3-1.4c0.3-1.6,0.4-3.2,0.6-4.8c0-0.3,0.1-0.8,0.2-1.3c1.3,1.7,3.5,3.2,5,4.7
	c2.9,3,5.6,6.2,8.6,9.2C77.1,47.5,77.8,47.5,76.5,49.5z"/>
</svg>
