<?xml version="1.0" encoding="utf-8"?>
<!-- Generator: Adobe Illustrator 18.1.0, SVG Export Plug-In . SVG Version: 6.00 Build 0)  -->
<svg version="1.1" id="Capa_1" xmlns="http://www.w3.org/2000/svg" xmlns:xlink="http://www.w3.org/1999/xlink" x="0px" y="0px"
	 viewBox="0 0 100 100" enable-background="new 0 0 100 100" xml:space="preserve">
<path fill="#575756" d="M84.9,60.9C82,59.1,79.4,57,77,54.6c-0.8-0.8-2.2-0.2-2.2,0.9c0,0.9-0.1,1.8-0.1,2.7
	c-8.7,1.6-17.4,2.3-26.3,2.4C40.9,60.8,30.8,61.6,24,58c-5.2-2.8-6-9.3-3.8-14.3c0.9-2.1,2.5-3.8,4.5-5c2.3-1.4,4.6-0.6,7-1.2
	c0.3-0.1,0.4-0.5,0.2-0.8c-3.7-3.9-10.2,0.6-12.6,3.8c-3.4,4.5-3.6,11.1-0.6,15.8c4.4,7,14.9,6.5,22,6.7c11.2,0.4,23,0.1,34-2.4
	c0,1,0.1,1.9,0.4,2.9c0,0.2,0.1,0.3,0.2,0.4c-0.8,0.7-0.1,2.5,1.3,2.2c2.9-0.6,5.8-1.5,8.5-2.8C85.8,62.7,85.6,61.4,84.9,60.9z
	 M77.2,58.3c1.4,1.2,2.8,2.4,4.4,3.5c-1.4,0.6-2.9,1-4.4,1.4c0-0.1,0-0.2,0-0.4C76.9,61.3,77,59.8,77.2,58.3z"/>
</svg>
